<svg xmlns:dc="http://purl.org/dc/elements/1.1/" xmlns:cc="http://creativecommons.org/ns#" xmlns:rdf="http://www.w3.org/1999/02/22-rdf-syntax-ns#" xmlns:svg="http://www.w3.org/2000/svg" xmlns="http://www.w3.org/2000/svg" xml:space="preserve" id="svg2" version="1.1" viewBox="224.68 455.88 1661.25 295.89"><metadata id="metadata8"><rdf:RDF><cc:Work rdf:about=""><dc:format>image/svg+xml</dc:format><dc:type rdf:resource="http://purl.org/dc/dcmitype/StillImage"/></cc:Work></rdf:RDF></metadata><defs id="defs6"><clipPath id="clipPath18" clipPathUnits="userSpaceOnUse"><path style="clip-rule:evenodd" id="path16" d="M 2.3589e-5,0 H 1583.04 V 890.52 H 2.3589e-5 Z"/></clipPath><clipPath id="clipPath26" clipPathUnits="userSpaceOnUse"><path style="clip-rule:evenodd" id="path24" d="M 2.3589e-5,0 H 1583.04 V 890.52 H 2.3589e-5 Z"/></clipPath><clipPath id="clipPath34" clipPathUnits="userSpaceOnUse"><path style="clip-rule:evenodd" id="path32" d="M 2.3589e-5,0 H 1583.04 V 890.52 H 2.3589e-5 Z"/></clipPath><clipPath id="clipPath42" clipPathUnits="userSpaceOnUse"><path style="clip-rule:evenodd" id="path40" d="M 2.3589e-5,0 H 1583.04 V 890.52 H 2.3589e-5 Z"/></clipPath><clipPath id="clipPath50" clipPathUnits="userSpaceOnUse"><path style="clip-rule:evenodd" id="path48" d="M 2.3589e-5,0 H 1583.04 V 890.52 H 2.3589e-5 Z"/></clipPath><clipPath id="clipPath58" clipPathUnits="userSpaceOnUse"><path style="clip-rule:evenodd" id="path56" d="M 2.3589e-5,0 H 1583.04 V 890.52 H 2.3589e-5 Z"/></clipPath><clipPath id="clipPath66" clipPathUnits="userSpaceOnUse"><path style="clip-rule:evenodd" id="path64" d="M 2.3589e-5,0 H 1583.04 V 890.52 H 2.3589e-5 Z"/></clipPath><clipPath id="clipPath74" clipPathUnits="userSpaceOnUse"><path style="clip-rule:evenodd" id="path72" d="M 2.3589e-5,0 H 1583.04 V 890.52 H 2.3589e-5 Z"/></clipPath><clipPath id="clipPath82" clipPathUnits="userSpaceOnUse"><path style="clip-rule:evenodd" id="path80" d="M 2.3589e-5,0 H 1583.04 V 890.52 H 2.3589e-5 Z"/></clipPath><clipPath id="clipPath90" clipPathUnits="userSpaceOnUse"><path style="clip-rule:evenodd" id="path88" d="M 2.3589e-5,0 H 1583.04 V 890.52 H 2.3589e-5 Z"/></clipPath><clipPath id="clipPath98" clipPathUnits="userSpaceOnUse"><path style="clip-rule:evenodd" id="path96" d="M 2.3589e-5,0 H 1583.04 V 890.52 H 2.3589e-5 Z"/></clipPath><clipPath id="clipPath106" clipPathUnits="userSpaceOnUse"><path style="clip-rule:evenodd" id="path104" d="M 2.3589e-5,0 H 1583.04 V 890.52 H 2.3589e-5 Z"/></clipPath><clipPath id="clipPath114" clipPathUnits="userSpaceOnUse"><path style="clip-rule:evenodd" id="path112" d="M 2.3589e-5,0 H 1583.04 V 890.52 H 2.3589e-5 Z"/></clipPath><clipPath id="clipPath122" clipPathUnits="userSpaceOnUse"><path style="clip-rule:evenodd" id="path120" d="M 2.3589e-5,0 H 1583.04 V 890.52 H 2.3589e-5 Z"/></clipPath><clipPath id="clipPath130" clipPathUnits="userSpaceOnUse"><path style="clip-rule:evenodd" id="path128" d="M 2.3589e-5,0 H 1583.04 V 890.52 H 2.3589e-5 Z"/></clipPath><clipPath id="clipPath138" clipPathUnits="userSpaceOnUse"><path style="clip-rule:evenodd" id="path136" d="M 2.3589e-5,0 H 1583.04 V 890.52 H 2.3589e-5 Z"/></clipPath><clipPath id="clipPath146" clipPathUnits="userSpaceOnUse"><path style="clip-rule:evenodd" id="path144" d="M 2.3589e-5,0 H 1583.04 V 890.52 H 2.3589e-5 Z"/></clipPath><clipPath id="clipPath154" clipPathUnits="userSpaceOnUse"><path style="clip-rule:evenodd" id="path152" d="M 2.3589e-5,0 H 1583.04 V 890.52 H 2.3589e-5 Z"/></clipPath><clipPath id="clipPath162" clipPathUnits="userSpaceOnUse"><path style="clip-rule:evenodd" id="path160" d="M 2.3589e-5,0 H 1583.04 V 890.52 H 2.3589e-5 Z"/></clipPath><clipPath id="clipPath170" clipPathUnits="userSpaceOnUse"><path style="clip-rule:evenodd" id="path168" d="M 2.3589e-5,0 H 1583.04 V 890.52 H 2.3589e-5 Z"/></clipPath><clipPath id="clipPath178" clipPathUnits="userSpaceOnUse"><path style="clip-rule:evenodd" id="path176" d="M 2.3589e-5,0 H 1583.04 V 890.52 H 2.3589e-5 Z"/></clipPath><clipPath id="clipPath186" clipPathUnits="userSpaceOnUse"><path style="clip-rule:evenodd" id="path184" d="M 2.3589e-5,0 H 1583.04 V 890.52 H 2.3589e-5 Z"/></clipPath><clipPath id="clipPath194" clipPathUnits="userSpaceOnUse"><path style="clip-rule:evenodd" id="path192" d="M 2.3589e-5,0 H 1583.04 V 890.52 H 2.3589e-5 Z"/></clipPath><clipPath id="clipPath202" clipPathUnits="userSpaceOnUse"><path style="clip-rule:evenodd" id="path200" d="M 2.3589e-5,0 H 1583.04 V 890.52 H 2.3589e-5 Z"/></clipPath><clipPath id="clipPath214" clipPathUnits="userSpaceOnUse"><path style="clip-rule:evenodd" id="path212" d="M 2.3589e-5,0 H 1583.04 V 890.52 H 2.3589e-5 Z"/></clipPath></defs><g transform="matrix(1.3333333,0,0,-1.3333333,0,1187.36)" id="g10"><g id="g12"><g clip-path="url(#clipPath18)" id="g14"/></g><g id="g20"><g clip-path="url(#clipPath26)" id="g22"/></g><g id="g28"><g clip-path="url(#clipPath34)" id="g30"/></g><g id="g36"><g clip-path="url(#clipPath42)" id="g38"/></g><g id="g44"><g clip-path="url(#clipPath50)" id="g46"/></g><g id="g52"><g clip-path="url(#clipPath58)" id="g54"/></g><g id="g60"><g clip-path="url(#clipPath66)" id="g62"/></g><g id="g68"><g clip-path="url(#clipPath74)" id="g70"/></g><g id="g76"><g clip-path="url(#clipPath82)" id="g78"/></g><g id="g84"><g clip-path="url(#clipPath90)" id="g86"/></g><g id="g92"><g clip-path="url(#clipPath98)" id="g94"/></g><g id="g100"><g clip-path="url(#clipPath106)" id="g102"/></g><g id="g108"><g clip-path="url(#clipPath114)" id="g110"/></g><g id="g116"><g clip-path="url(#clipPath122)" id="g118"/></g><g id="g124"><g clip-path="url(#clipPath130)" id="g126"/></g><g id="g132"><g clip-path="url(#clipPath138)" id="g134"/></g><g id="g140"><g clip-path="url(#clipPath146)" id="g142"/></g><g id="g148"><g clip-path="url(#clipPath154)" id="g150"/></g><g id="g156"><g clip-path="url(#clipPath162)" id="g158"/></g><g id="g164"><g clip-path="url(#clipPath170)" id="g166"/></g><g id="g172"><g clip-path="url(#clipPath178)" id="g174"/></g><g id="g180"><g clip-path="url(#clipPath186)" id="g182"/></g><g id="g188"><g clip-path="url(#clipPath194)" id="g190"/></g><g id="g196"><g clip-path="url(#clipPath202)" id="g198"><text id="text206" style="font-variant:normal;font-weight:bold;font-size:36px;font-family:Calibri;-inkscape-font-specification:Calibri-Bold;writing-mode:lr-tb;fill:#000000;fill-opacity:1;fill-rule:nonzero;stroke:none" transform="matrix(1,0,0,-1,369.14,336.29)"><tspan id="tspan204" y="0" x="0 9.6120005 17.747999 41.472 49.608002 72.288002 80.424004 90.036003 98.171997 121.104 129.24001 146.808 154.944 178.668 186.804 211.14 219.276 242.784 250.92 267.948 276.08401 291.31201 299.448 318.168 342.57599 361.62 369.75601 390.02399 398.23199 420.048 428.18399 444.70801 452.70001 470.51999 478.65601 496.224 504.35999 527.03998 551.55603 568.58398 576.71997 594.53998 602.67603 622.94397 631.08002 654.58801 662.724 681.76801 689.79602 707.61603 715.75201 739.26001 747.46802 767.73602 775.87201 793.44 801.46802">I N D I G E N O U S L Y C R A F T E D S T R U C T U R E S</tspan></text>
</g></g><g id="g208"><g clip-path="url(#clipPath214)" id="g210"/></g><path id="path216" style="fill:#ff0000;fill-opacity:1;fill-rule:evenodd;stroke:none" d="m 490.94,480.78 h -20.23 v -20.23 l 0.48,-2.41 1.33,-1.97 1.96,-1.32 2.41,-0.49 h 20.23 v 20.24 l -0.48,2.4 -1.33,1.97 -1.96,1.32 z"/><path id="path218" style="fill:#fdbe02;fill-opacity:1;fill-rule:evenodd;stroke:none" d="M 551.19,548.59 H 449.27 l -3.87,-0.15 -3.78,-0.44 -3.69,-0.72 -3.59,-0.98 -3.48,-1.25 -3.35,-1.49 -3.21,-1.72 -3.06,-1.95 -2.91,-2.17 -2.74,-2.36 -2.56,-2.56 -2.36,-2.74 -2.17,-2.91 -1.95,-3.06 -1.72,-3.21 -1.49,-3.35 -1.25,-3.48 -0.98,-3.59 -0.72,-3.69 -0.44,-3.78 -0.15,-3.87 v -96.34 l 23.37,22.51 v 73.83 l 0.28,3.85 0.83,3.68 1.32,3.46 1.78,3.21 2.2,2.91 2.58,2.58 2.91,2.2 3.21,1.78 3.46,1.32 3.68,0.82 3.85,0.29 h 77.65 z"/><path id="path220" style="fill:#fdbe02;fill-opacity:1;fill-rule:evenodd;stroke:none" d="m 568.03,532.36 -23.37,-22.51 v -73.83 l -0.29,-3.85 -0.82,-3.68 -1.32,-3.46 -1.78,-3.21 -2.2,-2.91 -2.58,-2.58 -2.91,-2.2 -3.21,-1.78 -3.46,-1.32 -3.68,-0.82 -3.85,-0.29 h -77.65 l -24.27,-23.37 h 101.92 l 3.87,0.15 3.78,0.44 3.69,0.72 3.59,0.99 3.48,1.24 3.35,1.49 3.21,1.73 3.06,1.95 2.91,2.16 2.74,2.37 2.56,2.55 2.36,2.74 2.16,2.91 1.95,3.06 1.73,3.22 1.49,3.35 1.25,3.47 0.98,3.59 0.72,3.69 0.44,3.79 0.15,3.86 z"/><path id="path222" style="fill:none;stroke:#b1b1b1;stroke-width:1.16830003;stroke-linecap:butt;stroke-linejoin:round;stroke-miterlimit:10;stroke-dasharray:none;stroke-opacity:1" d="M 168.95,528.42 H 371.39"/><path id="path224" style="fill:none;stroke:#b1b1b1;stroke-width:1.16830003;stroke-linecap:butt;stroke-linejoin:round;stroke-miterlimit:10;stroke-dasharray:none;stroke-opacity:1" d="M 168.95,507.86 H 371.39"/><path id="path226" style="fill:none;stroke:#b1b1b1;stroke-width:1.16830003;stroke-linecap:butt;stroke-linejoin:round;stroke-miterlimit:10;stroke-dasharray:none;stroke-opacity:1" d="M 168.95,487.3 H 330.89"/><path id="path228" style="fill:none;stroke:#b1b1b1;stroke-width:1.16830003;stroke-linecap:butt;stroke-linejoin:round;stroke-miterlimit:10;stroke-dasharray:none;stroke-opacity:1" d="m 343.75,487.3 h 27.64"/><path id="path230" style="fill:none;stroke:#b1b1b1;stroke-width:1.16830003;stroke-linecap:butt;stroke-linejoin:round;stroke-miterlimit:10;stroke-dasharray:none;stroke-opacity:1" d="M 168.95,466.74 H 330.89"/><path id="path232" style="fill:none;stroke:#b1b1b1;stroke-width:1.16830003;stroke-linecap:butt;stroke-linejoin:round;stroke-miterlimit:10;stroke-dasharray:none;stroke-opacity:1" d="m 343.75,466.74 h 27.64"/><path id="path234" style="fill:none;stroke:#b1b1b1;stroke-width:1.16830003;stroke-linecap:butt;stroke-linejoin:round;stroke-miterlimit:10;stroke-dasharray:none;stroke-opacity:1" d="m 343.75,446.18 h 27.64"/><path id="path236" style="fill:none;stroke:#b1b1b1;stroke-width:1.16830003;stroke-linecap:butt;stroke-linejoin:round;stroke-miterlimit:10;stroke-dasharray:none;stroke-opacity:1" d="M 168.95,446.18 H 330.89"/><path id="path238" style="fill:none;stroke:#b1b1b1;stroke-width:1.16830003;stroke-linecap:butt;stroke-linejoin:round;stroke-miterlimit:10;stroke-dasharray:none;stroke-opacity:1" d="M 168.95,425.62 H 371.39"/><path id="path240" style="fill:none;stroke:#b1b1b1;stroke-width:1.16830003;stroke-linecap:butt;stroke-linejoin:round;stroke-miterlimit:10;stroke-dasharray:none;stroke-opacity:1" d="M 168.95,405.06 H 371.39"/><path id="path242" style="fill:none;stroke:#b1b1b1;stroke-width:1.16830003;stroke-linecap:butt;stroke-linejoin:round;stroke-miterlimit:10;stroke-dasharray:none;stroke-opacity:1" d="M 231.84,386.13 V 548.17"/><path id="path244" style="fill:none;stroke:#b1b1b1;stroke-width:1.16830003;stroke-linecap:butt;stroke-linejoin:round;stroke-miterlimit:10;stroke-dasharray:none;stroke-opacity:1" d="M 253.18,386.13 V 548.17"/><path id="path246" style="fill:none;stroke:#b1b1b1;stroke-width:1.16830003;stroke-linecap:butt;stroke-linejoin:round;stroke-miterlimit:10;stroke-dasharray:none;stroke-opacity:1" d="M 274.52,386.13 V 548.17"/><path id="path248" style="fill:none;stroke:#b1b1b1;stroke-width:1.16830003;stroke-linecap:butt;stroke-linejoin:round;stroke-miterlimit:10;stroke-dasharray:none;stroke-opacity:1" d="M 295.86,386.13 V 548.17"/><path id="path250" style="fill:none;stroke:#b1b1b1;stroke-width:1.16830003;stroke-linecap:butt;stroke-linejoin:round;stroke-miterlimit:10;stroke-dasharray:none;stroke-opacity:1" d="M 317.2,386.13 V 548.17"/><path id="path252" style="fill:none;stroke:#b1b1b1;stroke-width:1.16830003;stroke-linecap:butt;stroke-linejoin:round;stroke-miterlimit:10;stroke-dasharray:none;stroke-opacity:1" d="M 338.54,444.07 V 386.13"/><path id="path254" style="fill:none;stroke:#b1b1b1;stroke-width:1.16830003;stroke-linecap:butt;stroke-linejoin:round;stroke-miterlimit:10;stroke-dasharray:none;stroke-opacity:1" d="M 338.54,548.17 V 490.24"/><path id="path256" style="fill:none;stroke:#b1b1b1;stroke-width:1.16830003;stroke-linecap:butt;stroke-linejoin:round;stroke-miterlimit:10;stroke-dasharray:none;stroke-opacity:1" d="M 359.88,386.13 V 548.17"/><path id="path258" style="fill:none;stroke:#b1b1b1;stroke-width:1.16830003;stroke-linecap:butt;stroke-linejoin:round;stroke-miterlimit:10;stroke-dasharray:none;stroke-opacity:1" d="M 189.16,386.13 V 548.17"/><path id="path260" style="fill:none;stroke:#b1b1b1;stroke-width:1.16830003;stroke-linecap:butt;stroke-linejoin:round;stroke-miterlimit:10;stroke-dasharray:none;stroke-opacity:1" d="M 210.5,386.13 V 548.17"/><path id="path262" style="fill:#000000;fill-opacity:1;fill-rule:evenodd;stroke:none" d="m 224.83,458.44 -0.4,3.4 -1.16,2.83 -4.43,4.25 -3.17,1.56 -3.76,1.27 -4.3,1.07 -3.95,1.02 -2.44,0.98 -1.24,1.1 -0.35,1.39 v 0.13 l 0.28,1.16 0.87,0.94 1.44,0.64 2.03,0.23 3.15,-0.29 3.26,-0.87 3.29,-1.43 3.23,-1.96 6.39,9.03 -3.14,2.19 -3.45,1.71 -3.77,1.24 -4.13,0.75 -4.5,0.25 -4.48,-0.37 -3.91,-1.06 -3.3,-1.69 -2.64,-2.24 -1.94,-2.74 -1.2,-3.16 -0.41,-3.52 v -0.13 l 0.45,-3.67 1.29,-2.97 2.02,-2.35 2.68,-1.86 3.22,-1.46 3.7,-1.19 4.06,-1.01 3.85,-1.03 2.39,-1.01 1.2,-1.09 0.34,-1.29 v -0.13 l -0.34,-1.33 -1.01,-1 -1.66,-0.62 -2.27,-0.22 -3.95,0.36 -3.83,1.05 -3.68,1.74 -3.51,2.39 -7.13,-8.51 3.01,-2.32 3.31,-1.92 3.56,-1.48 3.78,-1.07 3.93,-0.64 4.05,-0.22 4.56,0.34 4.04,0.99 3.45,1.62 2.8,2.21 2.08,2.78 1.29,3.3 0.45,3.8 z"/><path id="path264" style="fill:#000000;fill-opacity:1;fill-rule:evenodd;stroke:none" d="m 302.02,444.07 -3.49,8.24 -4.21,9.96 -5.55,13.13 -6.41,15.17 h -1.12 v -28.3 h -10.36 l 5.22,13.13 5.14,-13.13 v 28.3 h -11.21 l -19.66,-46.5 h 13.46 l 3.29,8.24 h 17.81 l 3.37,-8.24 z"/><path id="path266" style="fill:#000000;fill-opacity:1;fill-rule:evenodd;stroke:none" d="m 330.89,444.07 h 12.863 v 46.172 H 330.89 Z"/><path id="path268" style="fill:none;stroke:#b1b1b1;stroke-width:1.16830003;stroke-linecap:butt;stroke-linejoin:round;stroke-miterlimit:10;stroke-dasharray:none;stroke-opacity:1" d="m 595.45,528.42 h 818.56"/><path id="path270" style="fill:none;stroke:#b1b1b1;stroke-width:1.16830003;stroke-linecap:butt;stroke-linejoin:round;stroke-miterlimit:10;stroke-dasharray:none;stroke-opacity:1" d="m 595.45,507.86 h 818.56"/><path id="path272" style="fill:none;stroke:#b1b1b1;stroke-width:1.16830003;stroke-linecap:butt;stroke-linejoin:round;stroke-miterlimit:10;stroke-dasharray:none;stroke-opacity:1" d="m 1320.01,487.3 h 94"/><path id="path274" style="fill:none;stroke:#b1b1b1;stroke-width:1.16830003;stroke-linecap:butt;stroke-linejoin:round;stroke-miterlimit:10;stroke-dasharray:none;stroke-opacity:1" d="m 1015.23,487.3 h 44.69"/><path id="path276" style="fill:none;stroke:#b1b1b1;stroke-width:1.16830003;stroke-linecap:butt;stroke-linejoin:round;stroke-miterlimit:10;stroke-dasharray:none;stroke-opacity:1" d="m 595.45,487.3 h 406.98"/><path id="path278" style="fill:none;stroke:#b1b1b1;stroke-width:1.16830003;stroke-linecap:butt;stroke-linejoin:round;stroke-miterlimit:10;stroke-dasharray:none;stroke-opacity:1" d="m 1100.42,487.3 h 179.09"/><path id="path280" style="fill:none;stroke:#b1b1b1;stroke-width:1.16830003;stroke-linecap:butt;stroke-linejoin:round;stroke-miterlimit:10;stroke-dasharray:none;stroke-opacity:1" d="m 1306.16,466.74 h 107.85"/><path id="path282" style="fill:none;stroke:#b1b1b1;stroke-width:1.16830003;stroke-linecap:butt;stroke-linejoin:round;stroke-miterlimit:10;stroke-dasharray:none;stroke-opacity:1" d="m 1086.57,466.74 h 206.79"/><path id="path284" style="fill:none;stroke:#b1b1b1;stroke-width:1.16830003;stroke-linecap:butt;stroke-linejoin:round;stroke-miterlimit:10;stroke-dasharray:none;stroke-opacity:1" d="m 1015.23,466.74 h 58.54"/><path id="path286" style="fill:none;stroke:#b1b1b1;stroke-width:1.16830003;stroke-linecap:butt;stroke-linejoin:round;stroke-miterlimit:10;stroke-dasharray:none;stroke-opacity:1" d="m 595.45,466.74 h 406.98"/><path id="path288" style="fill:none;stroke:#b1b1b1;stroke-width:1.16830003;stroke-linecap:butt;stroke-linejoin:round;stroke-miterlimit:10;stroke-dasharray:none;stroke-opacity:1" d="m 1306.16,446.18 h 107.85"/><path id="path290" style="fill:none;stroke:#b1b1b1;stroke-width:1.16830003;stroke-linecap:butt;stroke-linejoin:round;stroke-miterlimit:10;stroke-dasharray:none;stroke-opacity:1" d="m 1086.57,446.18 h 206.79"/><path id="path292" style="fill:none;stroke:#b1b1b1;stroke-width:1.16830003;stroke-linecap:butt;stroke-linejoin:round;stroke-miterlimit:10;stroke-dasharray:none;stroke-opacity:1" d="m 595.45,446.18 h 406.98"/><path id="path294" style="fill:none;stroke:#b1b1b1;stroke-width:1.16830003;stroke-linecap:butt;stroke-linejoin:round;stroke-miterlimit:10;stroke-dasharray:none;stroke-opacity:1" d="m 1037.59,446.18 h 36.18"/><path id="path296" style="fill:none;stroke:#b1b1b1;stroke-width:1.16830003;stroke-linecap:butt;stroke-linejoin:round;stroke-miterlimit:10;stroke-dasharray:none;stroke-opacity:1" d="m 595.45,425.62 h 818.56"/><path id="path298" style="fill:none;stroke:#b1b1b1;stroke-width:1.16830003;stroke-linecap:butt;stroke-linejoin:round;stroke-miterlimit:10;stroke-dasharray:none;stroke-opacity:1" d="m 595.45,405.06 h 818.56"/><path id="path300" style="fill:none;stroke:#b1b1b1;stroke-width:1.16830003;stroke-linecap:butt;stroke-linejoin:round;stroke-miterlimit:10;stroke-dasharray:none;stroke-opacity:1" d="M 649.99,386.13 V 548.17"/><path id="path302" style="fill:none;stroke:#b1b1b1;stroke-width:1.16830003;stroke-linecap:butt;stroke-linejoin:round;stroke-miterlimit:10;stroke-dasharray:none;stroke-opacity:1" d="M 671.21,386.13 V 548.17"/><path id="path304" style="fill:none;stroke:#b1b1b1;stroke-width:1.16830003;stroke-linecap:butt;stroke-linejoin:round;stroke-miterlimit:10;stroke-dasharray:none;stroke-opacity:1" d="M 692.43,386.13 V 548.17"/><path id="path306" style="fill:none;stroke:#b1b1b1;stroke-width:1.16830003;stroke-linecap:butt;stroke-linejoin:round;stroke-miterlimit:10;stroke-dasharray:none;stroke-opacity:1" d="M 713.65,386.13 V 548.17"/><path id="path308" style="fill:none;stroke:#b1b1b1;stroke-width:1.16830003;stroke-linecap:butt;stroke-linejoin:round;stroke-miterlimit:10;stroke-dasharray:none;stroke-opacity:1" d="M 734.87,386.13 V 548.17"/><path id="path310" style="fill:none;stroke:#b1b1b1;stroke-width:1.16830003;stroke-linecap:butt;stroke-linejoin:round;stroke-miterlimit:10;stroke-dasharray:none;stroke-opacity:1" d="M 756.09,386.13 V 548.17"/><path id="path312" style="fill:none;stroke:#b1b1b1;stroke-width:1.16830003;stroke-linecap:butt;stroke-linejoin:round;stroke-miterlimit:10;stroke-dasharray:none;stroke-opacity:1" d="M 777.31,386.13 V 548.17"/><path id="path314" style="fill:none;stroke:#b1b1b1;stroke-width:1.16830003;stroke-linecap:butt;stroke-linejoin:round;stroke-miterlimit:10;stroke-dasharray:none;stroke-opacity:1" d="M 607.55,386.13 V 548.17"/><path id="path316" style="fill:none;stroke:#b1b1b1;stroke-width:1.16830003;stroke-linecap:butt;stroke-linejoin:round;stroke-miterlimit:10;stroke-dasharray:none;stroke-opacity:1" d="M 628.77,386.13 V 548.17"/><path id="path318" style="fill:none;stroke:#b1b1b1;stroke-width:1.16830003;stroke-linecap:butt;stroke-linejoin:round;stroke-miterlimit:10;stroke-dasharray:none;stroke-opacity:1" d="M 840.97,386.13 V 548.17"/><path id="path320" style="fill:none;stroke:#b1b1b1;stroke-width:1.16830003;stroke-linecap:butt;stroke-linejoin:round;stroke-miterlimit:10;stroke-dasharray:none;stroke-opacity:1" d="M 862.19,386.13 V 548.17"/><path id="path322" style="fill:none;stroke:#b1b1b1;stroke-width:1.16830003;stroke-linecap:butt;stroke-linejoin:round;stroke-miterlimit:10;stroke-dasharray:none;stroke-opacity:1" d="M 883.4,386.13 V 548.17"/><path id="path324" style="fill:none;stroke:#b1b1b1;stroke-width:1.16830003;stroke-linecap:butt;stroke-linejoin:round;stroke-miterlimit:10;stroke-dasharray:none;stroke-opacity:1" d="M 904.62,386.13 V 548.17"/><path id="path326" style="fill:none;stroke:#b1b1b1;stroke-width:1.16830003;stroke-linecap:butt;stroke-linejoin:round;stroke-miterlimit:10;stroke-dasharray:none;stroke-opacity:1" d="M 925.84,386.13 V 548.17"/><path id="path328" style="fill:none;stroke:#b1b1b1;stroke-width:1.16830003;stroke-linecap:butt;stroke-linejoin:round;stroke-miterlimit:10;stroke-dasharray:none;stroke-opacity:1" d="M 947.06,386.13 V 548.17"/><path id="path330" style="fill:none;stroke:#b1b1b1;stroke-width:1.16830003;stroke-linecap:butt;stroke-linejoin:round;stroke-miterlimit:10;stroke-dasharray:none;stroke-opacity:1" d="M 968.28,386.13 V 548.17"/><path id="path332" style="fill:none;stroke:#b1b1b1;stroke-width:1.16830003;stroke-linecap:butt;stroke-linejoin:round;stroke-miterlimit:10;stroke-dasharray:none;stroke-opacity:1" d="M 798.53,386.13 V 548.17"/><path id="path334" style="fill:none;stroke:#b1b1b1;stroke-width:1.16830003;stroke-linecap:butt;stroke-linejoin:round;stroke-miterlimit:10;stroke-dasharray:none;stroke-opacity:1" d="M 819.75,386.13 V 548.17"/><path id="path336" style="fill:none;stroke:#b1b1b1;stroke-width:1.16830003;stroke-linecap:butt;stroke-linejoin:round;stroke-miterlimit:10;stroke-dasharray:none;stroke-opacity:1" d="M 1031.94,444.04 V 386.13"/><path id="path338" style="fill:none;stroke:#b1b1b1;stroke-width:1.16830003;stroke-linecap:butt;stroke-linejoin:round;stroke-miterlimit:10;stroke-dasharray:none;stroke-opacity:1" d="M 1031.94,548.17 V 455.24"/><path id="path340" style="fill:none;stroke:#b1b1b1;stroke-width:1.16830003;stroke-linecap:butt;stroke-linejoin:round;stroke-miterlimit:10;stroke-dasharray:none;stroke-opacity:1" d="M 1053.16,386.13 V 548.17"/><path id="path342" style="fill:none;stroke:#b1b1b1;stroke-width:1.16830003;stroke-linecap:butt;stroke-linejoin:round;stroke-miterlimit:10;stroke-dasharray:none;stroke-opacity:1" d="M 1074.38,444.02 V 386.13"/><path id="path344" style="fill:none;stroke:#b1b1b1;stroke-width:1.16830003;stroke-linecap:butt;stroke-linejoin:round;stroke-miterlimit:10;stroke-dasharray:none;stroke-opacity:1" d="M 1074.38,548.17 V 490.22"/><path id="path346" style="fill:none;stroke:#b1b1b1;stroke-width:1.16830003;stroke-linecap:butt;stroke-linejoin:round;stroke-miterlimit:10;stroke-dasharray:none;stroke-opacity:1" d="M 1095.6,479.02 V 386.13"/><path id="path348" style="fill:none;stroke:#b1b1b1;stroke-width:1.16830003;stroke-linecap:butt;stroke-linejoin:round;stroke-miterlimit:10;stroke-dasharray:none;stroke-opacity:1" d="M 1095.6,548.17 V 490.22"/><path id="path350" style="fill:none;stroke:#b1b1b1;stroke-width:1.16830003;stroke-linecap:butt;stroke-linejoin:round;stroke-miterlimit:10;stroke-dasharray:none;stroke-opacity:1" d="M 1116.82,386.13 V 548.17"/><path id="path352" style="fill:none;stroke:#b1b1b1;stroke-width:1.16830003;stroke-linecap:butt;stroke-linejoin:round;stroke-miterlimit:10;stroke-dasharray:none;stroke-opacity:1" d="M 1138.04,386.13 V 548.17"/><path id="path354" style="fill:none;stroke:#b1b1b1;stroke-width:1.16830003;stroke-linecap:butt;stroke-linejoin:round;stroke-miterlimit:10;stroke-dasharray:none;stroke-opacity:1" d="M 1159.26,386.13 V 548.17"/><path id="path356" style="fill:none;stroke:#b1b1b1;stroke-width:1.16830003;stroke-linecap:butt;stroke-linejoin:round;stroke-miterlimit:10;stroke-dasharray:none;stroke-opacity:1" d="M 989.5,386.13 V 548.17"/><path id="path358" style="fill:none;stroke:#b1b1b1;stroke-width:1.16830003;stroke-linecap:butt;stroke-linejoin:round;stroke-miterlimit:10;stroke-dasharray:none;stroke-opacity:1" d="M 1010.72,444.04 V 386.13"/><path id="path360" style="fill:none;stroke:#b1b1b1;stroke-width:1.16830003;stroke-linecap:butt;stroke-linejoin:round;stroke-miterlimit:10;stroke-dasharray:none;stroke-opacity:1" d="M 1010.72,548.17 V 490.24"/><path id="path362" style="fill:none;stroke:#b1b1b1;stroke-width:1.16830003;stroke-linecap:butt;stroke-linejoin:round;stroke-miterlimit:10;stroke-dasharray:none;stroke-opacity:1" d="M 1222.91,386.13 V 548.17"/><path id="path364" style="fill:none;stroke:#b1b1b1;stroke-width:1.16830003;stroke-linecap:butt;stroke-linejoin:round;stroke-miterlimit:10;stroke-dasharray:none;stroke-opacity:1" d="M 1244.13,386.13 V 548.17"/><path id="path366" style="fill:none;stroke:#b1b1b1;stroke-width:1.16830003;stroke-linecap:butt;stroke-linejoin:round;stroke-miterlimit:10;stroke-dasharray:none;stroke-opacity:1" d="M 1265.35,386.13 V 548.17"/><path id="path368" style="fill:none;stroke:#b1b1b1;stroke-width:1.16830003;stroke-linecap:butt;stroke-linejoin:round;stroke-miterlimit:10;stroke-dasharray:none;stroke-opacity:1" d="M 1286.57,548.17 V 490.22"/><path id="path370" style="fill:none;stroke:#b1b1b1;stroke-width:1.16830003;stroke-linecap:butt;stroke-linejoin:round;stroke-miterlimit:10;stroke-dasharray:none;stroke-opacity:1" d="M 1286.57,479.02 V 386.13"/><path id="path372" style="fill:none;stroke:#b1b1b1;stroke-width:1.16830003;stroke-linecap:butt;stroke-linejoin:round;stroke-miterlimit:10;stroke-dasharray:none;stroke-opacity:1" d="M 1307.79,479.02 V 386.13"/><path id="path374" style="fill:none;stroke:#b1b1b1;stroke-width:1.16830003;stroke-linecap:butt;stroke-linejoin:round;stroke-miterlimit:10;stroke-dasharray:none;stroke-opacity:1" d="M 1307.79,548.17 V 490.22"/><path id="path376" style="fill:none;stroke:#b1b1b1;stroke-width:1.16830003;stroke-linecap:butt;stroke-linejoin:round;stroke-miterlimit:10;stroke-dasharray:none;stroke-opacity:1" d="M 1329.01,386.13 V 548.17"/><path id="path378" style="fill:none;stroke:#b1b1b1;stroke-width:1.16830003;stroke-linecap:butt;stroke-linejoin:round;stroke-miterlimit:10;stroke-dasharray:none;stroke-opacity:1" d="M 1350.23,386.13 V 548.17"/><path id="path380" style="fill:none;stroke:#b1b1b1;stroke-width:1.16830003;stroke-linecap:butt;stroke-linejoin:round;stroke-miterlimit:10;stroke-dasharray:none;stroke-opacity:1" d="M 1180.48,386.13 V 548.17"/><path id="path382" style="fill:none;stroke:#b1b1b1;stroke-width:1.16830003;stroke-linecap:butt;stroke-linejoin:round;stroke-miterlimit:10;stroke-dasharray:none;stroke-opacity:1" d="M 1201.69,386.13 V 548.17"/><path id="path384" style="fill:none;stroke:#b1b1b1;stroke-width:1.16830003;stroke-linecap:butt;stroke-linejoin:round;stroke-miterlimit:10;stroke-dasharray:none;stroke-opacity:1" d="M 1371.45,386.13 V 548.17"/><path id="path386" style="fill:none;stroke:#b1b1b1;stroke-width:1.16830003;stroke-linecap:butt;stroke-linejoin:round;stroke-miterlimit:10;stroke-dasharray:none;stroke-opacity:1" d="M 1392.67,386.13 V 548.17"/><path id="path388" style="fill:#000000;fill-opacity:1;fill-rule:evenodd;stroke:none" d="m 664.91,453.56 -9.63,6.86 -2.12,-2.29 -2.32,-1.77 -2.71,-1.14 -3.27,-0.4 -3.63,0.61 -3.04,1.73 -2.33,2.66 -1.49,3.39 -0.53,3.94 v 0.13 l 0.53,3.86 1.49,3.34 2.33,2.65 3.04,1.73 3.63,0.63 3.07,-0.39 2.64,-1.08 2.31,-1.71 2.07,-2.23 9.63,7.45 -2.21,2.68 -2.59,2.34 -2.99,1.92 -3.44,1.45 -3.92,0.92 -4.44,0.32 -3.72,-0.26 -3.51,-0.74 -3.26,-1.2 -3,-1.62 -2.7,-2 -2.36,-2.36 -2,-2.67 -1.61,-2.95 -1.19,-3.2 -0.74,-3.42 -0.25,-3.59 v -0.13 l 0.31,-4.02 0.9,-3.76 1.44,-3.46 1.93,-3.12 2.38,-2.75 2.77,-2.33 3.12,-1.89 3.42,-1.39 3.67,-0.86 3.87,-0.3 4.77,0.36 4.11,1.01 3.55,1.59 3.06,2.09 2.65,2.52 z"/><path id="path390" style="fill:#000000;fill-opacity:1;fill-rule:evenodd;stroke:none" d="m 743.45,467.28 -0.24,3.42 -0.01,0.13 -0.75,3.37 -1.21,3.18 -1.25,2.24 -0.39,0.7 -2.04,2.66 -2.41,2.35 -2.75,2 -2.01,1.07 v -21.25 -0.13 l -0.54,-3.84 -1.56,-3.38 -2.45,-2.69 -3.26,-1.78 -3.93,-0.64 -3.91,0.65 -3.26,1.81 -2.49,2.74 -1.59,3.41 -0.55,3.85 v 0.13 l 0.54,3.84 1.55,3.38 2.45,2.69 3.23,1.78 3.9,0.65 3.95,-0.66 3.28,-1.81 2.5,-2.73 1.59,-3.41 0.55,-3.86 v 21.25 l -1.04,0.55 -3.33,1.2 -3.56,0.75 h 0.03 l -3.84,0.26 -3.79,-0.26 -3.58,-0.76 -3.34,-1.21 -3.07,-1.64 -2.77,-2.02 -2.42,-2.37 -2.06,-2.68 -1.66,-2.95 -1.22,-3.19 -0.76,-3.38 -0.25,-3.42 -0.01,-0.26 0.25,-3.42 0.01,-0.13 0.75,-3.37 1.21,-3.18 1.64,-2.93 2.04,-2.67 2.41,-2.35 2.74,-2 3.06,-1.62 3.33,-1.2 3.57,-0.75 3.79,-0.26 3.75,0.26 h 0.03 l 3.6,0.76 3.34,1.21 3.07,1.64 2.76,2.02 2.43,2.37 2.06,2.68 1.65,2.95 1.23,3.19 0.75,3.38 0.25,3.42 z"/><path id="path392" style="fill:#000000;fill-opacity:1;fill-rule:evenodd;stroke:none" d="m 820.22,490.24 h -12.67 v -24.41 l -19,24.41 h -11.93 v -46.17 h 12.66 v 25.32 L 809,444.07 h 11.22 z"/><path id="path394" style="fill:#000000;fill-opacity:1;fill-rule:evenodd;stroke:none" d="m 892.3,458.44 -0.39,3.4 -1.16,2.83 -4.43,4.25 -3.18,1.55 -3.76,1.28 -4.29,1.07 -3.95,1.02 -2.44,0.98 -1.25,1.1 -0.35,1.39 v 0.13 l 0.29,1.16 0.86,0.94 1.44,0.64 2.03,0.23 3.15,-0.29 3.27,-0.87 3.28,-1.43 3.23,-1.96 6.4,9.03 -3.15,2.19 -3.44,1.71 -3.77,1.24 -4.13,0.75 -4.51,0.25 -4.48,-0.37 -3.91,-1.06 -3.3,-1.69 -2.64,-2.24 -1.94,-2.74 -1.2,-3.16 -0.4,-3.52 v -0.13 l 0.44,-3.67 1.29,-2.97 2.03,-2.35 2.67,-1.86 3.23,-1.46 3.69,-1.19 4.06,-1.01 3.86,-1.03 2.38,-1.01 1.21,-1.09 0.33,-1.29 v -0.13 l -0.34,-1.33 -1.01,-1 -1.65,-0.62 -2.27,-0.22 -3.96,0.36 -3.83,1.05 -3.68,1.74 -3.51,2.39 -7.12,-8.5 3,-2.34 3.31,-1.91 3.57,-1.49 3.77,-1.06 3.94,-0.64 4.04,-0.22 4.57,0.34 4.04,1 3.45,1.61 2.79,2.21 2.08,2.78 1.3,3.3 0.44,3.8 z"/><path id="path396" style="fill:#000000;fill-opacity:1;fill-rule:evenodd;stroke:none" d="m 967.47,490.24 h -13 v -25.99 l -0.6,-4.21 -1.72,-2.96 -2.69,-1.75 -3.5,-0.58 -3.5,0.6 -2.68,1.82 -1.72,3.06 -0.6,4.35 v 25.66 h -13 v -25.93 l 0.24,-4.1 0.72,-3.64 1.18,-3.18 1.6,-2.75 2.02,-2.3 2.42,-1.86 2.79,-1.44 3.14,-1.02 3.47,-0.61 3.79,-0.2 3.8,0.2 3.49,0.6 3.17,1.01 2.83,1.44 2.45,1.88 2.06,2.32 1.65,2.78 1.2,3.25 0.74,3.73 0.25,4.22 z"/><path id="path398" style="fill:#000000;fill-opacity:1;fill-rule:evenodd;stroke:none" d="m 1037.59,455.24 h -22.36 v 35 h -12.8 v -35 -11.2 h 35.16 z"/><path id="path400" style="fill:#000000;fill-opacity:1;fill-rule:evenodd;stroke:none" d="m 1100.42,490.22 h -40.5 v -11.2 h 13.85 v -35 h 12.8 v 35 h 13.85 z"/><path id="path402" style="fill:#000000;fill-opacity:1;fill-rule:evenodd;stroke:none" d="m 1173.95,444.06 -3.49,8.25 -4.21,9.96 -5.55,13.13 -6.41,15.17 h -1.12 v -28.3 h -10.36 l 5.22,13.13 5.14,-13.13 v 28.3 h -11.21 l -19.66,-46.51 h 13.46 l 3.3,8.25 h 17.8 l 3.37,-8.25 z"/><path id="path404" style="fill:#000000;fill-opacity:1;fill-rule:evenodd;stroke:none" d="m 1248.28,490.24 h -12.67 v -24.41 l -18.99,24.41 h -11.94 v -46.17 h 12.66 v 25.32 l 19.72,-25.32 h 11.22 z"/><path id="path406" style="fill:#000000;fill-opacity:1;fill-rule:evenodd;stroke:none" d="m 1320.01,490.22 h -40.5 v -11.2 h 13.85 v -35 h 12.8 v 35 h 13.85 z"/><path id="path408" style="fill:#000000;fill-opacity:1;fill-rule:evenodd;stroke:none" d="m 1388.67,458.44 -0.39,3.4 -1.16,2.83 -4.43,4.25 -3.17,1.55 -3.76,1.28 -4.3,1.07 -3.95,1.02 -2.44,0.98 -1.25,1.1 -0.34,1.39 v 0.13 l 0.28,1.16 0.86,0.94 1.44,0.64 2.03,0.23 3.16,-0.29 3.26,-0.87 3.29,-1.43 3.22,-1.96 6.4,9.03 -3.15,2.19 -3.44,1.71 -3.77,1.24 -4.13,0.75 -4.51,0.25 -4.48,-0.37 -3.91,-1.06 -3.29,-1.69 -2.64,-2.24 -1.95,-2.74 -1.19,-3.16 -0.41,-3.52 v -0.13 l 0.45,-3.67 1.28,-2.97 2.03,-2.35 2.67,-1.86 3.23,-1.46 3.69,-1.19 4.06,-1.01 3.86,-1.03 2.38,-1.01 1.21,-1.09 0.34,-1.29 v -0.13 l -0.35,-1.33 -1.01,-1 -1.65,-0.62 -2.27,-0.22 -3.95,0.36 -3.83,1.05 -3.69,1.74 -3.5,2.39 -7.13,-8.5 3.01,-2.34 3.3,-1.91 3.57,-1.49 3.77,-1.06 3.94,-0.64 4.05,-0.22 4.56,0.34 4.04,1 3.45,1.61 2.8,2.21 2.07,2.78 1.3,3.3 0.44,3.8 z"/></g></svg>