<svg xmlns="http://www.w3.org/2000/svg" xmlns:xlink="http://www.w3.org/1999/xlink" xmlns:inkscape="http://www.inkscape.org/namespaces/inkscape" version="1.1" viewBox="204.24 414.55 1511.52 263.19">
<defs>
<clipPath id="clip_0">
<path transform="matrix(1,0,0,-1,0,1080)" d="M0 1080H1920V0H0Z"/>
</clipPath>
</defs>
<g inkscape:groupmode="layer" inkscape:label="Layer 1">
<g clip-path="url(#clip_0)">
<path transform="matrix(1,0,0,-1,438.9919,674.20608)" d="M0 0V22.559C0 23.73 .266 24.609 .801 25.195 1.334 25.781 2.023 26.074 2.871 26.074 3.742 26.074 4.449 25.784 4.99 25.205 5.529 24.626 5.801 23.743 5.801 22.559V0C5.801-1.185 5.529-2.07 4.99-2.656 4.449-3.242 3.742-3.535 2.871-3.535 2.037-3.535 1.35-3.239 .811-2.646 .27-2.054 0-1.172 0 0"/>
<path transform="matrix(1,0,0,-1,465.9314,651.6084)" d="M0 0 11.152-16.875V.156C11.152 1.263 11.39 2.093 11.865 2.646 12.34 3.2 12.981 3.477 13.789 3.477 14.622 3.477 15.279 3.2 15.762 2.646 16.243 2.093 16.484 1.263 16.484 .156V-22.363C16.484-24.876 15.442-26.133 13.359-26.133 12.838-26.133 12.369-26.058 11.953-25.908 11.536-25.759 11.146-25.521 10.781-25.195 10.416-24.87 10.078-24.489 9.766-24.053 9.453-23.616 9.141-23.171 8.828-22.715L-2.051-6.035V-22.812C-2.051-23.906-2.305-24.733-2.813-25.293-3.32-25.853-3.972-26.133-4.766-26.133-5.586-26.133-6.244-25.85-6.738-25.283-7.233-24.717-7.48-23.894-7.48-22.812V-.723C-7.48 .215-7.377 .95-7.168 1.484-6.921 2.07-6.511 2.549-5.937 2.92-5.365 3.291-4.746 3.477-4.082 3.477-3.562 3.477-3.115 3.392-2.744 3.223-2.373 3.054-2.048 2.825-1.768 2.539-1.488 2.253-1.201 1.882-.908 1.426-.615 .97-.312 .495 0 0"/>
<path transform="matrix(1,0,0,-1,501.783,653.20999)" d="M0 0V-19.434H4.395C5.357-19.434 6.113-19.407 6.66-19.355 7.207-19.304 7.773-19.173 8.359-18.965 8.945-18.757 9.453-18.464 9.883-18.086 11.822-16.445 12.793-13.62 12.793-9.609 12.793-6.784 12.366-4.668 11.514-3.262 10.66-1.855 9.609-.96 8.359-.576 7.109-.192 5.599 0 3.828 0ZM-2.246 4.59H5.312C7.278 4.59 8.965 4.407 10.371 4.043 11.777 3.679 13.053 2.995 14.199 1.992 17.181-.56 18.672-4.44 18.672-9.648 18.672-11.367 18.521-12.937 18.223-14.355 17.923-15.774 17.461-17.054 16.836-18.193 16.211-19.333 15.41-20.352 14.434-21.25 13.665-21.94 12.825-22.493 11.914-22.91 11.002-23.327 10.022-23.62 8.975-23.789 7.926-23.958 6.744-24.043 5.43-24.043H-2.129C-3.184-24.043-3.979-23.884-4.512-23.564-5.046-23.245-5.395-22.796-5.557-22.217-5.72-21.638-5.801-20.886-5.801-19.961V1.035C-5.801 2.285-5.521 3.19-4.961 3.75-4.401 4.31-3.496 4.59-2.246 4.59"/>
<path transform="matrix(1,0,0,-1,532.9236,674.20608)" d="M0 0V22.559C0 23.73 .266 24.609 .801 25.195 1.334 25.781 2.023 26.074 2.871 26.074 3.742 26.074 4.449 25.784 4.99 25.205 5.529 24.626 5.801 23.743 5.801 22.559V0C5.801-1.185 5.529-2.07 4.99-2.656 4.449-3.242 3.742-3.535 2.871-3.535 2.037-3.535 1.35-3.239 .811-2.646 .27-2.054 0-1.172 0 0"/>
<path transform="matrix(1,0,0,-1,578.3728,665.6123)" d="M0 0V-5.488C0-6.218-.072-6.8-.215-7.236-.359-7.673-.623-8.066-1.006-8.418-1.391-8.77-1.883-9.108-2.48-9.434-4.213-10.371-5.879-11.055-7.48-11.484-9.082-11.914-10.828-12.129-12.715-12.129-14.916-12.129-16.922-11.79-18.73-11.113-20.541-10.437-22.084-9.453-23.359-8.164-24.637-6.875-25.615-5.312-26.299-3.477-26.982-1.641-27.324 .41-27.324 2.676-27.324 4.902-26.992 6.94-26.328 8.789-25.664 10.638-24.687 12.207-23.398 13.496-22.109 14.785-20.541 15.771-18.691 16.455-16.844 17.139-14.746 17.48-12.402 17.48-10.477 17.48-8.77 17.224-7.285 16.709-5.801 16.194-4.598 15.547-3.672 14.766-2.748 13.984-2.051 13.157-1.582 12.285-1.113 11.413-.879 10.638-.879 9.961-.879 9.231-1.15 8.61-1.689 8.096-2.23 7.581-2.879 7.324-3.633 7.324-4.051 7.324-4.451 7.422-4.834 7.617-5.219 7.812-5.541 8.086-5.801 8.438-6.518 9.558-7.123 10.403-7.617 10.977-8.113 11.55-8.779 12.031-9.619 12.422-10.459 12.813-11.531 13.008-12.832 13.008-14.174 13.008-15.371 12.776-16.426 12.314-17.48 11.853-18.383 11.182-19.131 10.303-19.881 9.424-20.453 8.347-20.85 7.07-21.248 5.794-21.445 4.382-21.445 2.832-21.445-.527-20.674-3.112-19.131-4.922-17.588-6.731-15.438-7.637-12.676-7.637-11.336-7.637-10.076-7.461-8.896-7.109-7.719-6.758-6.523-6.257-5.312-5.605V-.957H-9.805C-10.887-.957-11.703-.794-12.256-.469-12.811-.144-13.086 .41-13.086 1.191-13.086 1.829-12.855 2.356-12.393 2.773-11.932 3.19-11.303 3.398-10.508 3.398H-3.926C-3.119 3.398-2.436 3.327-1.875 3.184-1.316 3.04-.863 2.722-.518 2.227-.174 1.731 0 .989 0 0"/>
<path transform="matrix(1,0,0,-1,609.9197,653.0928)" d="M0 0H-13.066V-7.031H-1.035C-.15-7.031 .51-7.229 .947-7.627 1.383-8.024 1.602-8.548 1.602-9.199 1.602-9.851 1.387-10.381 .957-10.791 .527-11.201-.137-11.406-1.035-11.406H-13.066V-19.551H.449C1.359-19.551 2.047-19.763 2.51-20.186 2.971-20.608 3.203-21.172 3.203-21.875 3.203-22.552 2.971-23.103 2.51-23.525 2.047-23.948 1.359-24.16 .449-24.16H-15.313C-16.576-24.16-17.484-23.88-18.037-23.32-18.592-22.761-18.867-21.855-18.867-20.605V.918C-18.867 1.751-18.744 2.432-18.496 2.959-18.25 3.486-17.861 3.87-17.334 4.111-16.807 4.353-16.133 4.473-15.313 4.473H0C.924 4.473 1.611 4.268 2.061 3.857 2.51 3.447 2.734 2.91 2.734 2.246 2.734 1.569 2.51 1.025 2.061 .615 1.611 .205 .924 0 0 0"/>
<path transform="matrix(1,0,0,-1,632.1423,651.6084)" d="M0 0 11.152-16.875V.156C11.152 1.263 11.39 2.093 11.865 2.646 12.34 3.2 12.981 3.477 13.789 3.477 14.622 3.477 15.279 3.2 15.762 2.646 16.243 2.093 16.484 1.263 16.484 .156V-22.363C16.484-24.876 15.442-26.133 13.359-26.133 12.838-26.133 12.369-26.058 11.953-25.908 11.536-25.759 11.146-25.521 10.781-25.195 10.416-24.87 10.078-24.489 9.766-24.053 9.453-23.616 9.141-23.171 8.828-22.715L-2.051-6.035V-22.812C-2.051-23.906-2.305-24.733-2.813-25.293-3.32-25.853-3.972-26.133-4.766-26.133-5.586-26.133-6.244-25.85-6.738-25.283-7.233-24.717-7.48-23.894-7.48-22.812V-.723C-7.48 .215-7.377 .95-7.168 1.484-6.921 2.07-6.511 2.549-5.937 2.92-5.365 3.291-4.746 3.477-4.082 3.477-3.562 3.477-3.115 3.392-2.744 3.223-2.373 3.054-2.048 2.825-1.768 2.539-1.488 2.253-1.201 1.882-.908 1.426-.615 .97-.312 .495 0 0"/>
<path transform="matrix(1,0,0,-1,681.0408,653.0928)" d="M0 0H-13.066V-7.031H-1.035C-.149-7.031 .512-7.229 .947-7.627 1.384-8.024 1.602-8.548 1.602-9.199 1.602-9.851 1.387-10.381 .957-10.791 .527-11.201-.137-11.406-1.035-11.406H-13.066V-19.551H.449C1.361-19.551 2.048-19.763 2.51-20.186 2.973-20.608 3.203-21.172 3.203-21.875 3.203-22.552 2.973-23.103 2.51-23.525 2.048-23.948 1.361-24.16 .449-24.16H-15.313C-16.575-24.16-17.483-23.88-18.037-23.32-18.59-22.761-18.867-21.855-18.867-20.605V.918C-18.867 1.751-18.743 2.432-18.496 2.959-18.248 3.486-17.861 3.87-17.334 4.111-16.807 4.353-16.133 4.473-15.313 4.473H0C.925 4.473 1.611 4.268 2.061 3.857 2.51 3.447 2.734 2.91 2.734 2.246 2.734 1.569 2.51 1.025 2.061 .615 1.611 .205 .925 0 0 0"/>
<path transform="matrix(1,0,0,-1,716.2576,662.8584)" d="M0 0C0 2.097-.339 3.913-1.016 5.449-1.693 6.985-2.66 8.147-3.916 8.936-5.173 9.724-6.615 10.117-8.242 10.117-9.401 10.117-10.473 9.899-11.455 9.463-12.438 9.026-13.285 8.392-13.994 7.559-14.704 6.726-15.264 5.661-15.674 4.365-16.084 3.069-16.289 1.614-16.289 0-16.289-1.628-16.084-3.099-15.674-4.414-15.264-5.729-14.685-6.819-13.936-7.686-13.188-8.552-12.328-9.199-11.357-9.629-10.388-10.059-9.323-10.273-8.164-10.273-6.68-10.273-5.316-9.902-4.072-9.16-2.829-8.418-1.84-7.272-1.104-5.723-.368-4.173 0-2.266 0 0M-8.242 14.727C-5.273 14.727-2.725 14.124-.596 12.92 1.533 11.716 3.145 10.003 4.238 7.783 5.332 5.563 5.879 2.956 5.879-.039 5.879-2.253 5.579-4.265 4.98-6.074 4.381-7.884 3.482-9.453 2.285-10.781 1.087-12.109-.385-13.125-2.129-13.828-3.874-14.531-5.873-14.883-8.125-14.883-10.365-14.883-12.37-14.521-14.141-13.799-15.912-13.076-17.39-12.058-18.574-10.742-19.76-9.427-20.654-7.845-21.26-5.996-21.865-4.147-22.168-2.148-22.168 0-22.168 2.2-21.853 4.219-21.221 6.055-20.59 7.891-19.675 9.453-18.477 10.742-17.279 12.031-15.82 13.018-14.102 13.701-12.383 14.385-10.43 14.727-8.242 14.727"/>
<path transform="matrix(1,0,0,-1,734.1287,665.417)" d="M0 0V13.77C0 14.941 .264 15.82 .791 16.406 1.318 16.992 2.012 17.285 2.871 17.285 3.77 17.285 4.482 16.992 5.01 16.406 5.537 15.82 5.801 14.941 5.801 13.77V-.312C5.801-1.914 5.979-3.252 6.338-4.326 6.695-5.4 7.33-6.233 8.242-6.826 9.153-7.419 10.43-7.715 12.07-7.715 14.336-7.715 15.938-7.112 16.875-5.908 17.812-4.704 18.281-2.878 18.281-.43V13.77C18.281 14.954 18.541 15.837 19.062 16.416 19.583 16.995 20.279 17.285 21.152 17.285 22.024 17.285 22.73 16.995 23.271 16.416 23.812 15.837 24.082 14.954 24.082 13.77V0C24.082-2.239 23.863-4.108 23.428-5.605 22.991-7.103 22.168-8.418 20.957-9.551 19.915-10.515 18.704-11.218 17.324-11.66 15.943-12.103 14.329-12.324 12.48-12.324 10.279-12.324 8.385-12.087 6.797-11.611 5.208-11.136 3.912-10.4 2.91-9.404 1.907-8.408 1.172-7.132 .703-5.576 .234-4.021 0-2.161 0 0"/>
<path transform="matrix(1,0,0,-1,792.9939,668.6592)" d="M0 0C0-1.731-.446-3.288-1.338-4.668-2.23-6.048-3.535-7.129-5.254-7.91-6.973-8.691-9.011-9.082-11.367-9.082-14.193-9.082-16.523-8.548-18.359-7.48-19.662-6.712-20.72-5.687-21.533-4.404-22.348-3.122-22.754-1.875-22.754-.664-22.754 .039-22.51 .642-22.021 1.143-21.533 1.644-20.912 1.895-20.156 1.895-19.545 1.895-19.027 1.699-18.604 1.309-18.181 .918-17.819 .339-17.52-.43-17.155-1.341-16.762-2.103-16.338-2.715-15.915-3.327-15.319-3.831-14.551-4.229-13.783-4.626-12.773-4.824-11.523-4.824-9.805-4.824-8.408-4.424-7.334-3.623-6.26-2.822-5.723-1.823-5.723-.625-5.723 .325-6.013 1.097-6.592 1.689-7.172 2.282-7.92 2.734-8.838 3.047-9.756 3.359-10.983 3.691-12.52 4.043-14.577 4.524-16.299 5.088-17.686 5.732-19.072 6.377-20.173 7.256-20.986 8.369-21.801 9.482-22.207 10.866-22.207 12.52-22.207 14.095-21.777 15.495-20.918 16.719-20.059 17.942-18.815 18.884-17.187 19.541-15.561 20.198-13.646 20.527-11.445 20.527-9.688 20.527-8.168 20.31-6.885 19.873-5.603 19.437-4.538 18.857-3.691 18.135-2.846 17.412-2.227 16.653-1.836 15.859-1.445 15.065-1.25 14.29-1.25 13.535-1.25 12.845-1.494 12.224-1.982 11.67-2.471 11.116-3.08 10.84-3.809 10.84-4.473 10.84-4.978 11.006-5.322 11.338-5.668 11.67-6.042 12.214-6.445 12.969-6.967 14.05-7.592 14.893-8.32 15.498-9.05 16.104-10.222 16.406-11.836 16.406-13.334 16.406-14.541 16.077-15.459 15.42-16.377 14.763-16.836 13.972-16.836 13.047-16.836 12.474-16.68 11.979-16.367 11.563-16.055 11.146-15.625 10.788-15.078 10.488-14.531 10.188-13.979 9.954-13.418 9.785-12.858 9.616-11.934 9.368-10.645 9.043-9.03 8.665-7.568 8.249-6.26 7.793-4.951 7.337-3.838 6.784-2.92 6.133-2.002 5.481-1.286 4.658-.771 3.662-.258 2.666 0 1.445 0 0"/>
<path transform="matrix(1,0,0,-1,810.7791,651.64749)" d="M0 0V-20.84H11.758C12.695-20.84 13.415-21.067 13.916-21.523 14.418-21.979 14.668-22.552 14.668-23.242 14.668-23.945 14.421-24.515 13.926-24.951 13.432-25.388 12.709-25.605 11.758-25.605H-2.246C-3.509-25.605-4.417-25.325-4.971-24.766-5.523-24.206-5.801-23.301-5.801-22.051V0C-5.801 1.172-5.537 2.051-5.01 2.637-4.482 3.223-3.789 3.516-2.93 3.516-2.057 3.516-1.351 3.226-.811 2.646-.27 2.067 0 1.185 0 0"/>
<path transform="matrix(1,0,0,-1,839.4187,674.20608)" d="M0 0V9.082L-6.992 19.922C-7.604 20.898-8.037 21.66-8.291 22.207-8.545 22.754-8.672 23.229-8.672 23.633-8.672 24.297-8.415 24.87-7.9 25.352-7.386 25.833-6.751 26.074-5.996 26.074-5.202 26.074-4.6 25.85-4.189 25.4-3.779 24.951-3.164 24.056-2.344 22.715L3.008 14.023 8.418 22.715C8.743 23.249 9.017 23.698 9.238 24.062 9.46 24.427 9.704 24.769 9.971 25.088 10.237 25.407 10.534 25.651 10.859 25.82 11.185 25.989 11.582 26.074 12.051 26.074 12.78 26.074 13.389 25.837 13.877 25.361 14.365 24.886 14.609 24.336 14.609 23.711 14.609 23.203 14.485 22.695 14.238 22.187 13.991 21.68 13.567 20.977 12.969 20.078L5.801 9.082V0C5.801-1.185 5.527-2.07 4.98-2.656 4.434-3.242 3.737-3.535 2.891-3.535 2.031-3.535 1.335-3.245 .801-2.666 .267-2.087 0-1.198 0 0"/>
<path transform="matrix(1,0,0,-1,907.6267,668.20999)" d="M0 0C0-.911-.225-1.897-.674-2.959-1.123-4.021-1.83-5.062-2.793-6.084-3.757-7.106-4.987-7.937-6.484-8.574-7.982-9.212-9.727-9.531-11.719-9.531-13.229-9.531-14.604-9.388-15.84-9.102-17.077-8.815-18.2-8.369-19.209-7.764-20.219-7.158-21.146-6.36-21.992-5.371-22.748-4.473-23.393-3.467-23.926-2.354-24.46-1.24-24.86-.052-25.127 1.211-25.395 2.474-25.527 3.815-25.527 5.234-25.527 7.539-25.192 9.603-24.521 11.426-23.852 13.249-22.891 14.808-21.641 16.104-20.391 17.399-18.926 18.386-17.246 19.062-15.566 19.739-13.776 20.078-11.875 20.078-9.558 20.078-7.494 19.616-5.684 18.691-3.874 17.767-2.487 16.624-1.523 15.264-.561 13.903-.078 12.617-.078 11.406-.078 10.742-.312 10.156-.781 9.648-1.25 9.141-1.816 8.887-2.48 8.887-3.223 8.887-3.779 9.063-4.15 9.414-4.521 9.766-4.936 10.371-5.391 11.23-6.146 12.649-7.035 13.711-8.057 14.414-9.079 15.117-10.339 15.469-11.836 15.469-14.219 15.469-16.117 14.563-17.529 12.754-18.942 10.944-19.648 8.372-19.648 5.039-19.648 2.813-19.336 .96-18.711-.518-18.086-1.995-17.201-3.099-16.055-3.828-14.909-4.558-13.568-4.922-12.031-4.922-10.365-4.922-8.955-4.509-7.803-3.682-6.65-2.855-5.781-1.641-5.195-.039-4.948 .716-4.643 1.331-4.277 1.807-3.913 2.282-3.327 2.52-2.52 2.52-1.83 2.52-1.237 2.278-.742 1.797-.248 1.315 0 .716 0 0"/>
<path transform="matrix(1,0,0,-1,931.0789,652.9756)" d="M0 0H-5.352V-7.871H-.156C1.237-7.871 2.409-7.751 3.359-7.51 4.31-7.269 5.036-6.858 5.537-6.279 6.038-5.7 6.289-4.902 6.289-3.887 6.289-3.093 6.087-2.393 5.684-1.787 5.28-1.182 4.72-.729 4.004-.43 3.327-.144 1.992 0 0 0M-3.32-12.031H-5.352V-21.23C-5.352-22.441-5.618-23.333-6.152-23.906-6.687-24.479-7.383-24.766-8.242-24.766-9.167-24.766-9.883-24.466-10.391-23.867-10.898-23.269-11.152-22.39-11.152-21.23V.801C-11.152 2.051-10.872 2.956-10.313 3.516-9.753 4.075-8.848 4.355-7.598 4.355H1.836C3.138 4.355 4.251 4.3 5.176 4.189 6.101 4.079 6.934 3.854 7.676 3.516 8.574 3.138 9.368 2.598 10.059 1.895 10.749 1.191 11.272 .374 11.631-.557 11.989-1.487 12.168-2.474 12.168-3.516 12.168-5.651 11.565-7.356 10.361-8.633 9.157-9.909 7.331-10.813 4.883-11.348 5.911-11.895 6.895-12.702 7.832-13.77 8.77-14.837 9.606-15.974 10.342-17.178 11.077-18.382 11.65-19.47 12.061-20.439 12.471-21.409 12.676-22.077 12.676-22.441 12.676-22.819 12.556-23.193 12.314-23.564 12.073-23.936 11.745-24.229 11.328-24.443 10.911-24.658 10.43-24.766 9.883-24.766 9.231-24.766 8.685-24.612 8.242-24.307 7.8-24.001 7.419-23.613 7.1-23.145 6.78-22.676 6.348-21.985 5.801-21.074L3.477-17.207C2.644-15.788 1.897-14.707 1.24-13.965 .583-13.223-.085-12.715-.762-12.441-1.438-12.168-2.292-12.031-3.32-12.031"/>
<path transform="matrix(1,0,0,-1,963.1501,666.0615)" d="M0 0H8.555L4.238 11.816ZM11.484-7.949 10.117-4.355H-1.523L-2.891-8.027C-3.424-9.46-3.88-10.427-4.258-10.928-4.635-11.429-5.254-11.68-6.113-11.68-6.842-11.68-7.486-11.413-8.047-10.879-8.606-10.345-8.887-9.739-8.887-9.063-8.887-8.672-8.821-8.269-8.691-7.852-8.561-7.435-8.346-6.855-8.047-6.113L-.723 12.48C-.514 13.015-.264 13.655 .029 14.404 .322 15.153 .635 15.774 .967 16.27 1.299 16.765 1.735 17.165 2.275 17.471 2.816 17.776 3.483 17.93 4.277 17.93 5.085 17.93 5.759 17.776 6.299 17.471 6.84 17.165 7.275 16.771 7.607 16.289 7.939 15.808 8.22 15.29 8.447 14.736 8.676 14.183 8.965 13.444 9.316 12.52L16.797-5.957C17.383-7.363 17.676-8.386 17.676-9.023 17.676-9.688 17.399-10.296 16.846-10.85 16.293-11.403 15.625-11.68 14.844-11.68 14.389-11.68 13.998-11.599 13.672-11.436 13.347-11.272 13.073-11.052 12.852-10.771 12.631-10.491 12.393-10.062 12.139-9.482 11.885-8.903 11.667-8.392 11.484-7.949"/>
<path transform="matrix(1,0,0,-1,1009.1257,653.0928)" d="M0 0H-11.426V-7.324H-1.875C-.989-7.324-.329-7.522 .107-7.92 .544-8.317 .762-8.848 .762-9.512 .762-10.176 .54-10.703 .098-11.094-.345-11.484-1.003-11.68-1.875-11.68H-11.426V-21.113C-11.426-22.312-11.696-23.2-12.236-23.779-12.776-24.358-13.47-24.648-14.316-24.648-15.176-24.648-15.876-24.355-16.416-23.77-16.956-23.184-17.227-22.298-17.227-21.113V.918C-17.227 1.751-17.103 2.432-16.855 2.959-16.608 3.486-16.221 3.87-15.693 4.111-15.166 4.353-14.492 4.473-13.672 4.473H0C.925 4.473 1.611 4.268 2.061 3.857 2.51 3.447 2.734 2.91 2.734 2.246 2.734 1.569 2.51 1.025 2.061 .615 1.611 .205 .925 0 0 0"/>
<path transform="matrix(1,0,0,-1,1043.0896,653.4053)" d="M0 0H-6.328V-20.801C-6.328-21.999-6.595-22.888-7.129-23.467-7.662-24.046-8.353-24.336-9.199-24.336-10.059-24.336-10.758-24.043-11.299-23.457-11.839-22.871-12.109-21.985-12.109-20.801V0H-18.437C-19.427 0-20.162 .218-20.645 .654-21.126 1.091-21.367 1.667-21.367 2.383-21.367 3.125-21.116 3.711-20.615 4.141-20.113 4.57-19.388 4.785-18.437 4.785H0C1.003 4.785 1.748 4.563 2.236 4.121 2.725 3.679 2.969 3.099 2.969 2.383 2.969 1.667 2.722 1.091 2.227 .654 1.732 .218 .99 0 0 0"/>
<path transform="matrix(1,0,0,-1,1075.6755,653.0928)" d="M0 0H-13.066V-7.031H-1.035C-.149-7.031 .512-7.229 .947-7.627 1.384-8.024 1.602-8.548 1.602-9.199 1.602-9.851 1.387-10.381 .957-10.791 .527-11.201-.137-11.406-1.035-11.406H-13.066V-19.551H.449C1.361-19.551 2.048-19.763 2.51-20.186 2.973-20.608 3.203-21.172 3.203-21.875 3.203-22.552 2.973-23.103 2.51-23.525 2.048-23.948 1.361-24.16 .449-24.16H-15.313C-16.575-24.16-17.483-23.88-18.037-23.32-18.59-22.761-18.867-21.855-18.867-20.605V.918C-18.867 1.751-18.743 2.432-18.496 2.959-18.248 3.486-17.861 3.87-17.334 4.111-16.807 4.353-16.133 4.473-15.313 4.473H0C.925 4.473 1.611 4.268 2.061 3.857 2.51 3.447 2.734 2.91 2.734 2.246 2.734 1.569 2.51 1.025 2.061 .615 1.611 .205 .925 0 0 0"/>
<path transform="matrix(1,0,0,-1,1096.2048,653.20999)" d="M0 0V-19.434H4.395C5.357-19.434 6.113-19.407 6.66-19.355 7.207-19.304 7.773-19.173 8.359-18.965 8.945-18.757 9.453-18.464 9.883-18.086 11.822-16.445 12.793-13.62 12.793-9.609 12.793-6.784 12.365-4.668 11.514-3.262 10.66-1.855 9.609-.96 8.359-.576 7.109-.192 5.598 0 3.828 0ZM-2.246 4.59H5.312C7.277 4.59 8.965 4.407 10.371 4.043 11.777 3.679 13.053 2.995 14.199 1.992 17.18-.56 18.672-4.44 18.672-9.648 18.672-11.367 18.521-12.937 18.223-14.355 17.922-15.774 17.461-17.054 16.836-18.193 16.211-19.333 15.41-20.352 14.434-21.25 13.664-21.94 12.824-22.493 11.914-22.91 11.002-23.327 10.021-23.62 8.975-23.789 7.926-23.958 6.744-24.043 5.43-24.043H-2.129C-3.184-24.043-3.979-23.884-4.512-23.564-5.047-23.245-5.395-22.796-5.557-22.217-5.721-21.638-5.801-20.886-5.801-19.961V1.035C-5.801 2.285-5.521 3.19-4.961 3.75-4.402 4.31-3.496 4.59-2.246 4.59"/>
<path transform="matrix(1,0,0,-1,1166.9314,668.6592)" d="M0 0C0-1.731-.446-3.288-1.338-4.668-2.23-6.048-3.535-7.129-5.254-7.91-6.973-8.691-9.011-9.082-11.367-9.082-14.193-9.082-16.523-8.548-18.359-7.48-19.662-6.712-20.72-5.687-21.533-4.404-22.348-3.122-22.754-1.875-22.754-.664-22.754 .039-22.51 .642-22.021 1.143-21.533 1.644-20.912 1.895-20.156 1.895-19.545 1.895-19.027 1.699-18.604 1.309-18.181 .918-17.819 .339-17.52-.43-17.155-1.341-16.762-2.103-16.338-2.715-15.915-3.327-15.319-3.831-14.551-4.229-13.783-4.626-12.773-4.824-11.523-4.824-9.805-4.824-8.408-4.424-7.334-3.623-6.26-2.822-5.723-1.823-5.723-.625-5.723 .325-6.013 1.097-6.592 1.689-7.172 2.282-7.92 2.734-8.838 3.047-9.756 3.359-10.983 3.691-12.52 4.043-14.577 4.524-16.299 5.088-17.686 5.732-19.072 6.377-20.173 7.256-20.986 8.369-21.801 9.482-22.207 10.866-22.207 12.52-22.207 14.095-21.777 15.495-20.918 16.719-20.059 17.942-18.815 18.884-17.187 19.541-15.561 20.198-13.646 20.527-11.445 20.527-9.688 20.527-8.168 20.31-6.885 19.873-5.603 19.437-4.538 18.857-3.691 18.135-2.846 17.412-2.227 16.653-1.836 15.859-1.445 15.065-1.25 14.29-1.25 13.535-1.25 12.845-1.494 12.224-1.982 11.67-2.471 11.116-3.08 10.84-3.809 10.84-4.473 10.84-4.978 11.006-5.322 11.338-5.668 11.67-6.042 12.214-6.445 12.969-6.967 14.05-7.592 14.893-8.32 15.498-9.05 16.104-10.222 16.406-11.836 16.406-13.334 16.406-14.541 16.077-15.459 15.42-16.377 14.763-16.836 13.972-16.836 13.047-16.836 12.474-16.68 11.979-16.367 11.563-16.055 11.146-15.625 10.788-15.078 10.488-14.531 10.188-13.979 9.954-13.418 9.785-12.858 9.616-11.934 9.368-10.645 9.043-9.03 8.665-7.568 8.249-6.26 7.793-4.951 7.337-3.838 6.784-2.92 6.133-2.002 5.481-1.286 4.658-.771 3.662-.258 2.666 0 1.445 0 0"/>
<path transform="matrix(1,0,0,-1,1197.3865,653.4053)" d="M0 0H-6.328V-20.801C-6.328-21.999-6.595-22.888-7.129-23.467-7.662-24.046-8.353-24.336-9.199-24.336-10.059-24.336-10.758-24.043-11.299-23.457-11.839-22.871-12.109-21.985-12.109-20.801V0H-18.437C-19.427 0-20.162 .218-20.645 .654-21.126 1.091-21.367 1.667-21.367 2.383-21.367 3.125-21.116 3.711-20.615 4.141-20.113 4.57-19.388 4.785-18.437 4.785H0C1.003 4.785 1.748 4.563 2.236 4.121 2.725 3.679 2.969 3.099 2.969 2.383 2.969 1.667 2.722 1.091 2.227 .654 1.732 .218 .99 0 0 0"/>
<path transform="matrix(1,0,0,-1,1222.242,652.9756)" d="M0 0H-5.352V-7.871H-.156C1.237-7.871 2.409-7.751 3.359-7.51 4.311-7.269 5.036-6.858 5.537-6.279 6.039-5.7 6.289-4.902 6.289-3.887 6.289-3.093 6.088-2.393 5.684-1.787 5.28-1.182 4.721-.729 4.004-.43 3.327-.144 1.992 0 0 0M-3.32-12.031H-5.352V-21.23C-5.352-22.441-5.618-23.333-6.152-23.906-6.686-24.479-7.383-24.766-8.242-24.766-9.166-24.766-9.883-24.466-10.391-23.867-10.898-23.269-11.152-22.39-11.152-21.23V.801C-11.152 2.051-10.872 2.956-10.313 3.516-9.752 4.075-8.848 4.355-7.598 4.355H1.836C3.139 4.355 4.252 4.3 5.176 4.189 6.101 4.079 6.934 3.854 7.676 3.516 8.574 3.138 9.369 2.598 10.059 1.895 10.749 1.191 11.273 .374 11.631-.557 11.989-1.487 12.168-2.474 12.168-3.516 12.168-5.651 11.566-7.356 10.361-8.633 9.157-9.909 7.331-10.813 4.883-11.348 5.912-11.895 6.895-12.702 7.832-13.77 8.77-14.837 9.606-15.974 10.342-17.178 11.078-18.382 11.65-19.47 12.061-20.439 12.471-21.409 12.676-22.077 12.676-22.441 12.676-22.819 12.556-23.193 12.314-23.564 12.074-23.936 11.745-24.229 11.328-24.443 10.912-24.658 10.43-24.766 9.883-24.766 9.232-24.766 8.686-24.612 8.242-24.307 7.8-24.001 7.419-23.613 7.1-23.145 6.781-22.676 6.348-21.985 5.801-21.074L3.477-17.207C2.644-15.788 1.898-14.707 1.24-13.965 .583-13.223-.084-12.715-.762-12.441-1.438-12.168-2.291-12.031-3.32-12.031"/>
<path transform="matrix(1,0,0,-1,1246.6179,665.417)" d="M0 0V13.77C0 14.941 .264 15.82 .791 16.406 1.318 16.992 2.012 17.285 2.871 17.285 3.77 17.285 4.482 16.992 5.01 16.406 5.537 15.82 5.801 14.941 5.801 13.77V-.312C5.801-1.914 5.979-3.252 6.338-4.326 6.696-5.4 7.331-6.233 8.242-6.826 9.153-7.419 10.43-7.715 12.07-7.715 14.336-7.715 15.938-7.112 16.875-5.908 17.812-4.704 18.281-2.878 18.281-.43V13.77C18.281 14.954 18.542 15.837 19.062 16.416 19.583 16.995 20.28 17.285 21.152 17.285 22.024 17.285 22.731 16.995 23.271 16.416 23.812 15.837 24.082 14.954 24.082 13.77V0C24.082-2.239 23.864-4.108 23.428-5.605 22.991-7.103 22.168-8.418 20.957-9.551 19.915-10.515 18.704-11.218 17.324-11.66 15.944-12.103 14.329-12.324 12.48-12.324 10.28-12.324 8.386-12.087 6.797-11.611 5.208-11.136 3.913-10.4 2.91-9.404 1.907-8.408 1.172-7.132 .703-5.576 .234-4.021 0-2.161 0 0"/>
<path transform="matrix(1,0,0,-1,1308.2966,668.20999)" d="M0 0C0-.911-.225-1.897-.674-2.959-1.123-4.021-1.83-5.062-2.793-6.084-3.758-7.106-4.988-7.937-6.484-8.574-7.982-9.212-9.727-9.531-11.719-9.531-13.23-9.531-14.604-9.388-15.84-9.102-17.078-8.815-18.201-8.369-19.209-7.764-20.219-7.158-21.146-6.36-21.992-5.371-22.748-4.473-23.393-3.467-23.926-2.354-24.461-1.24-24.861-.052-25.127 1.211-25.395 2.474-25.527 3.815-25.527 5.234-25.527 7.539-25.193 9.603-24.521 11.426-23.852 13.249-22.891 14.808-21.641 16.104-20.391 17.399-18.926 18.386-17.246 19.062-15.566 19.739-13.777 20.078-11.875 20.078-9.559 20.078-7.494 19.616-5.684 18.691-3.875 17.767-2.488 16.624-1.523 15.264-.561 13.903-.078 12.617-.078 11.406-.078 10.742-.312 10.156-.781 9.648-1.25 9.141-1.816 8.887-2.48 8.887-3.223 8.887-3.779 9.063-4.15 9.414-4.521 9.766-4.936 10.371-5.391 11.23-6.146 12.649-7.035 13.711-8.057 14.414-9.08 15.117-10.34 15.469-11.836 15.469-14.219 15.469-16.117 14.563-17.529 12.754-18.943 10.944-19.648 8.372-19.648 5.039-19.648 2.813-19.336 .96-18.711-.518-18.086-1.995-17.201-3.099-16.055-3.828-14.91-4.558-13.568-4.922-12.031-4.922-10.365-4.922-8.955-4.509-7.803-3.682-6.65-2.855-5.781-1.641-5.195-.039-4.949 .716-4.643 1.331-4.277 1.807-3.914 2.282-3.328 2.52-2.52 2.52-1.83 2.52-1.238 2.278-.742 1.797-.248 1.315 0 .716 0 0"/>
<path transform="matrix(1,0,0,-1,1339.0173,653.4053)" d="M0 0H-6.328V-20.801C-6.328-21.999-6.596-22.888-7.129-23.467-7.664-24.046-8.354-24.336-9.199-24.336-10.059-24.336-10.76-24.043-11.299-23.457-11.84-22.871-12.109-21.985-12.109-20.801V0H-18.437C-19.428 0-20.164 .218-20.645 .654-21.127 1.091-21.367 1.667-21.367 2.383-21.367 3.125-21.117 3.711-20.615 4.141-20.115 4.57-19.389 4.785-18.437 4.785H0C1.002 4.785 1.748 4.563 2.236 4.121 2.725 3.679 2.969 3.099 2.969 2.383 2.969 1.667 2.721 1.091 2.227 .654 1.73 .218 .988 0 0 0"/>
<path transform="matrix(1,0,0,-1,1352.7537,665.417)" d="M0 0V13.77C0 14.941 .264 15.82 .791 16.406 1.318 16.992 2.012 17.285 2.871 17.285 3.77 17.285 4.482 16.992 5.01 16.406 5.537 15.82 5.801 14.941 5.801 13.77V-.312C5.801-1.914 5.98-3.252 6.338-4.326 6.696-5.4 7.331-6.233 8.242-6.826 9.154-7.419 10.43-7.715 12.07-7.715 14.336-7.715 15.938-7.112 16.875-5.908 17.812-4.704 18.281-2.878 18.281-.43V13.77C18.281 14.954 18.542 15.837 19.062 16.416 19.584 16.995 20.28 17.285 21.152 17.285 22.025 17.285 22.731 16.995 23.271 16.416 23.812 15.837 24.082 14.954 24.082 13.77V0C24.082-2.239 23.864-4.108 23.428-5.605 22.992-7.103 22.168-8.418 20.957-9.551 19.916-10.515 18.705-11.218 17.324-11.66 15.944-12.103 14.33-12.324 12.48-12.324 10.28-12.324 8.386-12.087 6.797-11.611 5.209-11.136 3.913-10.4 2.91-9.404 1.908-8.408 1.172-7.132 .703-5.576 .234-4.021 0-2.161 0 0"/>
<path transform="matrix(1,0,0,-1,1401.3865,652.9756)" d="M0 0H-5.352V-7.871H-.156C1.237-7.871 2.409-7.751 3.359-7.51 4.311-7.269 5.036-6.858 5.537-6.279 6.039-5.7 6.289-4.902 6.289-3.887 6.289-3.093 6.088-2.393 5.684-1.787 5.28-1.182 4.721-.729 4.004-.43 3.327-.144 1.992 0 0 0M-3.32-12.031H-5.352V-21.23C-5.352-22.441-5.618-23.333-6.152-23.906-6.686-24.479-7.383-24.766-8.242-24.766-9.166-24.766-9.883-24.466-10.391-23.867-10.898-23.269-11.152-22.39-11.152-21.23V.801C-11.152 2.051-10.872 2.956-10.313 3.516-9.752 4.075-8.848 4.355-7.598 4.355H1.836C3.139 4.355 4.252 4.3 5.176 4.189 6.101 4.079 6.934 3.854 7.676 3.516 8.574 3.138 9.369 2.598 10.059 1.895 10.749 1.191 11.273 .374 11.631-.557 11.989-1.487 12.168-2.474 12.168-3.516 12.168-5.651 11.566-7.356 10.361-8.633 9.157-9.909 7.331-10.813 4.883-11.348 5.912-11.895 6.895-12.702 7.832-13.77 8.77-14.837 9.606-15.974 10.342-17.178 11.078-18.382 11.65-19.47 12.061-20.439 12.471-21.409 12.676-22.077 12.676-22.441 12.676-22.819 12.556-23.193 12.314-23.564 12.074-23.936 11.745-24.229 11.328-24.443 10.912-24.658 10.43-24.766 9.883-24.766 9.232-24.766 8.686-24.612 8.242-24.307 7.8-24.001 7.419-23.613 7.1-23.145 6.781-22.676 6.348-21.985 5.801-21.074L3.477-17.207C2.644-15.788 1.898-14.707 1.24-13.965 .583-13.223-.084-12.715-.762-12.441-1.438-12.168-2.291-12.031-3.32-12.031"/>
<path transform="matrix(1,0,0,-1,1444.9783,653.0928)" d="M0 0H-13.066V-7.031H-1.035C-.15-7.031 .511-7.229 .947-7.627 1.383-8.024 1.602-8.548 1.602-9.199 1.602-9.851 1.387-10.381 .957-10.791 .527-11.201-.137-11.406-1.035-11.406H-13.066V-19.551H.449C1.36-19.551 2.047-19.763 2.51-20.186 2.972-20.608 3.203-21.172 3.203-21.875 3.203-22.552 2.972-23.103 2.51-23.525 2.047-23.948 1.36-24.16 .449-24.16H-15.313C-16.576-24.16-17.484-23.88-18.037-23.32-18.591-22.761-18.867-21.855-18.867-20.605V.918C-18.867 1.751-18.744 2.432-18.496 2.959-18.249 3.486-17.861 3.87-17.334 4.111-16.807 4.353-16.133 4.473-15.313 4.473H0C.924 4.473 1.611 4.268 2.061 3.857 2.51 3.447 2.734 2.91 2.734 2.246 2.734 1.569 2.51 1.025 2.061 .615 1.611 .205 .924 0 0 0"/>
<path transform="matrix(1,0,0,-1,1481.0086,668.6592)" d="M0 0C0-1.731-.446-3.288-1.338-4.668-2.229-6.048-3.535-7.129-5.254-7.91-6.973-8.691-9.011-9.082-11.367-9.082-14.192-9.082-16.523-8.548-18.359-7.48-19.661-6.712-20.72-5.687-21.533-4.404-22.347-3.122-22.754-1.875-22.754-.664-22.754 .039-22.51 .642-22.021 1.143-21.533 1.644-20.911 1.895-20.156 1.895-19.544 1.895-19.026 1.699-18.604 1.309-18.181 .918-17.819 .339-17.52-.43-17.155-1.341-16.761-2.103-16.338-2.715-15.915-3.327-15.319-3.831-14.551-4.229-13.782-4.626-12.773-4.824-11.523-4.824-9.805-4.824-8.408-4.424-7.334-3.623-6.26-2.822-5.723-1.823-5.723-.625-5.723 .325-6.013 1.097-6.592 1.689-7.171 2.282-7.92 2.734-8.838 3.047-9.756 3.359-10.983 3.691-12.52 4.043-14.577 4.524-16.299 5.088-17.686 5.732-19.072 6.377-20.173 7.256-20.986 8.369-21.8 9.482-22.207 10.866-22.207 12.52-22.207 14.095-21.777 15.495-20.918 16.719-20.059 17.942-18.815 18.884-17.187 19.541-15.56 20.198-13.646 20.527-11.445 20.527-9.688 20.527-8.167 20.31-6.885 19.873-5.603 19.437-4.538 18.857-3.691 18.135-2.845 17.412-2.227 16.653-1.836 15.859-1.445 15.065-1.25 14.29-1.25 13.535-1.25 12.845-1.494 12.224-1.982 11.67-2.471 11.116-3.079 10.84-3.809 10.84-4.473 10.84-4.978 11.006-5.322 11.338-5.667 11.67-6.042 12.214-6.445 12.969-6.966 14.05-7.591 14.893-8.32 15.498-9.05 16.104-10.222 16.406-11.836 16.406-13.333 16.406-14.541 16.077-15.459 15.42-16.377 14.763-16.836 13.972-16.836 13.047-16.836 12.474-16.68 11.979-16.367 11.563-16.055 11.146-15.625 10.788-15.078 10.488-14.531 10.188-13.978 9.954-13.418 9.785-12.858 9.616-11.934 9.368-10.645 9.043-9.03 8.665-7.568 8.249-6.26 7.793-4.951 7.337-3.838 6.784-2.92 6.133-2.002 5.481-1.286 4.658-.771 3.662-.257 2.666 0 1.445 0 0"/>
<path transform="matrix(1,0,0,-1,204.9509,439.2163)" stroke-width="1.417" stroke-linecap="round" stroke-linejoin="round" fill="none" stroke="#b2b2b2" d="M0 0H245.532"/>
<path transform="matrix(1,0,0,-1,204.9509,464.15229)" stroke-width="1.417" stroke-linecap="round" stroke-linejoin="round" fill="none" stroke="#b2b2b2" d="M0 0H245.532"/>
<path transform="matrix(1,0,0,-1,204.9509,489.08839)" stroke-width="1.417" stroke-linecap="round" stroke-linejoin="round" fill="none" stroke="#b2b2b2" d="M0 0H245.532"/>
<path transform="matrix(1,0,0,-1,204.9509,514.0249)" stroke-width="1.417" stroke-linecap="round" stroke-linejoin="round" fill="none" stroke="#b2b2b2" d="M0 0H245.532"/>
<path transform="matrix(1,0,0,-1,204.9509,538.9609)" stroke-width="1.417" stroke-linecap="round" stroke-linejoin="round" fill="none" stroke="#b2b2b2" d="M0 0H245.532"/>
<path transform="matrix(1,0,0,-1,204.9509,563.8975)" stroke-width="1.417" stroke-linecap="round" stroke-linejoin="round" fill="none" stroke="#b2b2b2" d="M0 0H245.532"/>
<path transform="matrix(1,0,0,-1,204.9509,588.833)" stroke-width="1.417" stroke-linecap="round" stroke-linejoin="round" fill="none" stroke="#b2b2b2" d="M0 0H245.532"/>
<path transform="matrix(1,0,0,-1,281.2273,611.791)" stroke-width="1.417" stroke-linecap="round" stroke-linejoin="round" fill="none" stroke="#b2b2b2" d="M0 0V196.532"/>
<path transform="matrix(1,0,0,-1,307.1101,611.791)" stroke-width="1.417" stroke-linecap="round" stroke-linejoin="round" fill="none" stroke="#b2b2b2" d="M0 0V196.532"/>
<path transform="matrix(1,0,0,-1,332.9929,611.791)" stroke-width="1.417" stroke-linecap="round" stroke-linejoin="round" fill="none" stroke="#b2b2b2" d="M0 0V196.532"/>
<path transform="matrix(1,0,0,-1,358.8767,611.791)" stroke-width="1.417" stroke-linecap="round" stroke-linejoin="round" fill="none" stroke="#b2b2b2" d="M0 0V196.532"/>
<path transform="matrix(1,0,0,-1,384.7595,611.791)" stroke-width="1.417" stroke-linecap="round" stroke-linejoin="round" fill="none" stroke="#b2b2b2" d="M0 0V196.532"/>
<path transform="matrix(1,0,0,-1,410.6423,611.791)" stroke-width="1.417" stroke-linecap="round" stroke-linejoin="round" fill="none" stroke="#b2b2b2" d="M0 0V196.532"/>
<path transform="matrix(1,0,0,-1,436.5251,611.791)" stroke-width="1.417" stroke-linecap="round" stroke-linejoin="round" fill="none" stroke="#b2b2b2" d="M0 0V196.532"/>
<path transform="matrix(1,0,0,-1,229.4617,611.791)" stroke-width="1.417" stroke-linecap="round" stroke-linejoin="round" fill="none" stroke="#b2b2b2" d="M0 0V196.532"/>
<path transform="matrix(1,0,0,-1,255.3445,611.791)" stroke-width="1.417" stroke-linecap="round" stroke-linejoin="round" fill="none" stroke="#b2b2b2" d="M0 0V196.532"/>
<path transform="matrix(1,0,0,-1,722.2273,439.2163)" stroke-width="1.417" stroke-linecap="round" stroke-linejoin="round" fill="none" stroke="#b2b2b2" d="M0 0H992.822"/>
<path transform="matrix(1,0,0,-1,722.2273,464.15229)" stroke-width="1.417" stroke-linecap="round" stroke-linejoin="round" fill="none" stroke="#b2b2b2" d="M0 0H992.822"/>
<path transform="matrix(1,0,0,-1,722.2273,489.08839)" stroke-width="1.417" stroke-linecap="round" stroke-linejoin="round" fill="none" stroke="#b2b2b2" d="M0 0H992.822"/>
<path transform="matrix(1,0,0,-1,722.2273,514.0249)" stroke-width="1.417" stroke-linecap="round" stroke-linejoin="round" fill="none" stroke="#b2b2b2" d="M0 0H992.822"/>
<path transform="matrix(1,0,0,-1,722.2273,538.9609)" stroke-width="1.417" stroke-linecap="round" stroke-linejoin="round" fill="none" stroke="#b2b2b2" d="M0 0H992.822"/>
<path transform="matrix(1,0,0,-1,722.2273,563.8975)" stroke-width="1.417" stroke-linecap="round" stroke-linejoin="round" fill="none" stroke="#b2b2b2" d="M0 0H992.822"/>
<path transform="matrix(1,0,0,-1,722.2273,588.833)" stroke-width="1.417" stroke-linecap="round" stroke-linejoin="round" fill="none" stroke="#b2b2b2" d="M0 0H992.822"/>
<path transform="matrix(1,0,0,-1,788.3816,611.791)" stroke-width="1.417" stroke-linecap="round" stroke-linejoin="round" fill="none" stroke="#b2b2b2" d="M0 0V196.532"/>
<path transform="matrix(1,0,0,-1,814.1179,611.791)" stroke-width="1.417" stroke-linecap="round" stroke-linejoin="round" fill="none" stroke="#b2b2b2" d="M0 0V196.532"/>
<path transform="matrix(1,0,0,-1,839.8552,611.791)" stroke-width="1.417" stroke-linecap="round" stroke-linejoin="round" fill="none" stroke="#b2b2b2" d="M0 0V196.532"/>
<path transform="matrix(1,0,0,-1,865.5916,611.791)" stroke-width="1.417" stroke-linecap="round" stroke-linejoin="round" fill="none" stroke="#b2b2b2" d="M0 0V196.532"/>
<path transform="matrix(1,0,0,-1,891.3279,611.791)" stroke-width="1.417" stroke-linecap="round" stroke-linejoin="round" fill="none" stroke="#b2b2b2" d="M0 0V196.532"/>
<path transform="matrix(1,0,0,-1,917.0642,611.791)" stroke-width="1.417" stroke-linecap="round" stroke-linejoin="round" fill="none" stroke="#b2b2b2" d="M0 0V196.532"/>
<path transform="matrix(1,0,0,-1,942.8015,611.791)" stroke-width="1.417" stroke-linecap="round" stroke-linejoin="round" fill="none" stroke="#b2b2b2" d="M0 0V196.532"/>
<path transform="matrix(1,0,0,-1,736.908,611.791)" stroke-width="1.417" stroke-linecap="round" stroke-linejoin="round" fill="none" stroke="#b2b2b2" d="M0 0V196.532"/>
<path transform="matrix(1,0,0,-1,762.6453,611.791)" stroke-width="1.417" stroke-linecap="round" stroke-linejoin="round" fill="none" stroke="#b2b2b2" d="M0 0V196.532"/>
<path transform="matrix(1,0,0,-1,1020.0115,611.791)" stroke-width="1.417" stroke-linecap="round" stroke-linejoin="round" fill="none" stroke="#b2b2b2" d="M0 0V196.532"/>
<path transform="matrix(1,0,0,-1,1045.7478,611.791)" stroke-width="1.417" stroke-linecap="round" stroke-linejoin="round" fill="none" stroke="#b2b2b2" d="M0 0V196.532"/>
<path transform="matrix(1,0,0,-1,1071.4841,611.791)" stroke-width="1.417" stroke-linecap="round" stroke-linejoin="round" fill="none" stroke="#b2b2b2" d="M0 0V196.532"/>
<path transform="matrix(1,0,0,-1,1097.2214,611.791)" stroke-width="1.417" stroke-linecap="round" stroke-linejoin="round" fill="none" stroke="#b2b2b2" d="M0 0V196.532"/>
<path transform="matrix(1,0,0,-1,1122.9578,611.791)" stroke-width="1.417" stroke-linecap="round" stroke-linejoin="round" fill="none" stroke="#b2b2b2" d="M0 0V196.532"/>
<path transform="matrix(1,0,0,-1,1148.6941,611.791)" stroke-width="1.417" stroke-linecap="round" stroke-linejoin="round" fill="none" stroke="#b2b2b2" d="M0 0V196.532"/>
<path transform="matrix(1,0,0,-1,1174.4314,611.791)" stroke-width="1.417" stroke-linecap="round" stroke-linejoin="round" fill="none" stroke="#b2b2b2" d="M0 0V196.532"/>
<path transform="matrix(1,0,0,-1,968.5378,611.791)" stroke-width="1.417" stroke-linecap="round" stroke-linejoin="round" fill="none" stroke="#b2b2b2" d="M0 0V196.532"/>
<path transform="matrix(1,0,0,-1,994.2742,611.791)" stroke-width="1.417" stroke-linecap="round" stroke-linejoin="round" fill="none" stroke="#b2b2b2" d="M0 0V196.532"/>
<path transform="matrix(1,0,0,-1,1251.6404,611.791)" stroke-width="1.417" stroke-linecap="round" stroke-linejoin="round" fill="none" stroke="#b2b2b2" d="M0 0V196.532"/>
<path transform="matrix(1,0,0,-1,1277.3777,611.791)" stroke-width="1.417" stroke-linecap="round" stroke-linejoin="round" fill="none" stroke="#b2b2b2" d="M0 0V196.532"/>
<path transform="matrix(1,0,0,-1,1303.114,611.791)" stroke-width="1.417" stroke-linecap="round" stroke-linejoin="round" fill="none" stroke="#b2b2b2" d="M0 0V196.532"/>
<path transform="matrix(1,0,0,-1,1328.8504,611.791)" stroke-width="1.417" stroke-linecap="round" stroke-linejoin="round" fill="none" stroke="#b2b2b2" d="M0 0V196.532"/>
<path transform="matrix(1,0,0,-1,1354.5877,611.791)" stroke-width="1.417" stroke-linecap="round" stroke-linejoin="round" fill="none" stroke="#b2b2b2" d="M0 0V196.532"/>
<path transform="matrix(1,0,0,-1,1380.324,611.791)" stroke-width="1.417" stroke-linecap="round" stroke-linejoin="round" fill="none" stroke="#b2b2b2" d="M0 0V196.532"/>
<path transform="matrix(1,0,0,-1,1406.0603,611.791)" stroke-width="1.417" stroke-linecap="round" stroke-linejoin="round" fill="none" stroke="#b2b2b2" d="M0 0V196.532"/>
<path transform="matrix(1,0,0,-1,1200.1677,611.791)" stroke-width="1.417" stroke-linecap="round" stroke-linejoin="round" fill="none" stroke="#b2b2b2" d="M0 0V196.532"/>
<path transform="matrix(1,0,0,-1,1225.904,611.791)" stroke-width="1.417" stroke-linecap="round" stroke-linejoin="round" fill="none" stroke="#b2b2b2" d="M0 0V196.532"/>
<path transform="matrix(1,0,0,-1,1483.2703,611.791)" stroke-width="1.417" stroke-linecap="round" stroke-linejoin="round" fill="none" stroke="#b2b2b2" d="M0 0V196.532"/>
<path transform="matrix(1,0,0,-1,1509.0076,611.791)" stroke-width="1.417" stroke-linecap="round" stroke-linejoin="round" fill="none" stroke="#b2b2b2" d="M0 0V196.532"/>
<path transform="matrix(1,0,0,-1,1534.7439,611.791)" stroke-width="1.417" stroke-linecap="round" stroke-linejoin="round" fill="none" stroke="#b2b2b2" d="M0 0V196.532"/>
<path transform="matrix(1,0,0,-1,1560.4802,611.791)" stroke-width="1.417" stroke-linecap="round" stroke-linejoin="round" fill="none" stroke="#b2b2b2" d="M0 0V196.532"/>
<path transform="matrix(1,0,0,-1,1586.2175,611.791)" stroke-width="1.417" stroke-linecap="round" stroke-linejoin="round" fill="none" stroke="#b2b2b2" d="M0 0V196.532"/>
<path transform="matrix(1,0,0,-1,1611.9539,611.791)" stroke-width="1.417" stroke-linecap="round" stroke-linejoin="round" fill="none" stroke="#b2b2b2" d="M0 0V196.532"/>
<path transform="matrix(1,0,0,-1,1637.6902,611.791)" stroke-width="1.417" stroke-linecap="round" stroke-linejoin="round" fill="none" stroke="#b2b2b2" d="M0 0V196.532"/>
<path transform="matrix(1,0,0,-1,1431.7976,611.791)" stroke-width="1.417" stroke-linecap="round" stroke-linejoin="round" fill="none" stroke="#b2b2b2" d="M0 0V196.532"/>
<path transform="matrix(1,0,0,-1,1457.5339,611.791)" stroke-width="1.417" stroke-linecap="round" stroke-linejoin="round" fill="none" stroke="#b2b2b2" d="M0 0V196.532"/>
<path transform="matrix(1,0,0,-1,1663.4265,611.791)" stroke-width="1.417" stroke-linecap="round" stroke-linejoin="round" fill="none" stroke="#b2b2b2" d="M0 0V196.532"/>
<path transform="matrix(1,0,0,-1,1689.1638,611.791)" stroke-width="1.417" stroke-linecap="round" stroke-linejoin="round" fill="none" stroke="#b2b2b2" d="M0 0V196.532"/>
<path transform="matrix(1,0,0,-1,223.8416,533.2056)" d="M0 0 8.641 10.32C14.16 5.92 20.32 3.6 26.801 3.6 30.961 3.6 33.201 5.04 33.201 7.44V7.6C33.201 9.92 31.361 11.2 23.761 12.96 11.84 15.68 2.641 19.041 2.641 30.561V30.721C2.641 41.121 10.881 48.641 24.32 48.641 33.841 48.641 41.281 46.081 47.361 41.201L39.602 30.241C34.48 33.841 28.881 35.761 23.921 35.761 20.16 35.761 18.32 34.161 18.32 32.161V32C18.32 29.44 20.24 28.32 28.001 26.561 40.881 23.76 48.881 19.6 48.881 9.12V8.96C48.881-2.48 39.842-9.28 26.24-9.28 16.32-9.28 6.881-6.16 0 0"/>
<path transform="matrix(1,0,0,-1,341.1462,519.4453)" d="M0 0-6.24 15.92-12.561 0ZM-13.601 34.321H1.359L25.201-22.08H8.561L4.48-12.081H-17.121L-21.121-22.08H-37.441Z"/>
<path transform="matrix(1,0,0,-1,0,1080)" d="M401.361 594.476H416.962V538.47506H401.361Z"/>
<path transform="matrix(1,0,0,-1,752.7957,513.6846)" d="M0 0V.16C0 16.48 12.561 29.28 29.521 29.28 40.961 29.28 48.321 24.48 53.281 17.6L41.601 8.56C38.401 12.56 34.721 15.12 29.36 15.12 21.521 15.12 16.001 8.48 16.001 .32V.16C16.001-8.24 21.521-14.8 29.36-14.8 35.2-14.8 38.642-12.081 42.001-8L53.681-16.32C48.401-23.6 41.28-28.961 28.881-28.961 12.88-28.961 0-16.721 0 0"/>
<path transform="matrix(1,0,0,-1,885.9001,513.6846)" d="M0 0V.16C0 8.24-5.84 15.28-14.4 15.28-22.881 15.28-28.561 8.4-28.561 .32V.16C-28.561-7.92-22.721-14.96-14.24-14.96-5.68-14.96 0-8.081 0 0M-44.48 0V.16C-44.48 16.24-31.521 29.28-14.24 29.28 3.04 29.28 15.84 16.4 15.84 .32V.16C15.84-15.92 2.881-28.961-14.4-28.961-31.681-28.961-44.48-16.081-44.48 0"/>
<path transform="matrix(1,0,0,-1,941.9626,485.52394)" d="M0 0H14.48L37.521-29.601V0H52.881V-56.001H39.281L15.36-25.281V-56.001H0Z"/>
<path transform="matrix(1,0,0,-1,1033.3943,533.2051)" d="M0 0 8.64 10.32C14.16 5.92 20.32 3.6 26.8 3.6 30.96 3.6 33.2 5.04 33.2 7.44V7.6C33.2 9.92 31.359 11.2 23.76 12.96 11.84 15.68 2.639 19.041 2.639 30.561V30.721C2.639 41.121 10.879 48.641 24.32 48.641 33.84 48.641 41.28 46.081 47.36 41.201L39.6 30.241C34.48 33.841 28.88 35.761 23.92 35.761 20.16 35.761 18.32 34.161 18.32 32.161V32C18.32 29.44 20.24 28.32 28 26.561 40.881 23.76 48.881 19.6 48.881 9.12V8.96C48.881-2.48 39.84-9.28 26.24-9.28 16.32-9.28 6.879-6.16 0 0"/>
<path transform="matrix(1,0,0,-1,1121.281,516.9648)" d="M0 0V31.441H15.761V.32C15.761-7.76 19.841-11.6 26.081-11.6 32.321-11.6 36.401-7.92 36.401-.08V31.441H52.162V.4C52.162-17.68 41.842-25.601 25.921-25.601 10-25.601 0-17.52 0 0"/>
<path transform="matrix(1,0,0,-1,1215.8494,485.52394)" d="M0 0H15.52V-42.401H42.641V-56.001H0Z"/>
<path transform="matrix(1,0,0,-1,1302.3767,499.1245)" d="M0 0H-16.801V13.601H32.32V0H15.521V-42.401H0Z"/>
<path transform="matrix(1,0,0,-1,1398.6804,519.4448)" d="M0 0-6.24 15.92-12.561 0ZM-13.601 34.321H1.36L25.2-22.081H8.561L4.48-12.081H-17.12L-21.12-22.081H-37.44Z"/>
<path transform="matrix(1,0,0,-1,1461.1511,485.52394)" d="M0 0H14.48L37.521-29.601V0H52.882V-56.001H39.281L15.36-25.281V-56.001H0Z"/>
<path transform="matrix(1,0,0,-1,1568.7195,499.1245)" d="M0 0H-16.801V13.601H32.32V0H15.521V-42.401H0Z"/>
<path transform="matrix(1,0,0,-1,1635.4373,533.2051)" d="M0 0 8.641 10.32C14.16 5.92 20.32 3.6 26.801 3.6 30.961 3.6 33.201 5.04 33.201 7.44V7.6C33.201 9.92 31.361 11.2 23.761 12.96 11.841 15.68 2.641 19.041 2.641 30.561V30.721C2.641 41.121 10.881 48.641 24.321 48.641 33.841 48.641 41.281 46.081 47.361 41.201L39.602 30.241C34.481 33.841 28.881 35.761 23.921 35.761 20.161 35.761 18.32 34.161 18.32 32.161V32C18.32 29.44 20.241 28.32 28.001 26.561 40.881 23.76 48.882 19.6 48.882 9.12V8.96C48.882-2.48 39.841-9.28 26.241-9.28 16.32-9.28 6.881-6.16 0 0"/>
<path transform="matrix(1,0,0,-1,602.0994,529.5459)" d="M0 0H-24.542C-28.685 0-32.042 3.358-32.042 7.5V32.042H-7.5C-3.357 32.042 0 28.685 0 24.542Z" fill="#ff0000"/>
<path transform="matrix(1,0,0,-1,659.7537,462.24073)" d="M0 0V-89.55C0-107.003-14.2-121.204-31.654-121.204H-125.836L-155.267-149.55H-31.654C1.483-149.55 28.346-122.687 28.346-89.55V27.303Z" fill="#febf02"/>
<path transform="matrix(1,0,0,-1,512.4041,564.8086)" d="M0 0V89.55C0 107.003 14.199 121.203 31.653 121.203H125.836L155.266 149.55H31.653C-1.484 149.55-28.347 122.687-28.347 89.55V-27.303Z" fill="#febf02"/>
</g>
</g>
</svg>