<?xml version="1.0" encoding="UTF-8"?>
<svg version="1.1" xmlns="http://www.w3.org/2000/svg" width="171" height="193">
<path d="M0 0 C56.43 0 112.86 0 171 0 C171 63.69 171 127.38 171 193 C114.57 193 58.14 193 0 193 C0 129.31 0 65.62 0 0 Z " fill="#FEFEFD" transform="translate(0,0)"/>
<path d="M0 0 C1.95725865 0.00373645 3.91451919 0.00658043 5.8717804 0.00857544 C10.9894235 0.01616218 16.10695063 0.03576735 21.22454834 0.0579834 C26.46022982 0.07854942 31.69593028 0.08760003 36.93164062 0.09765625 C47.17973807 0.1190185 57.42774997 0.15309363 67.67578125 0.1953125 C67.29868704 0.62687181 66.92159283 1.05843111 66.53307152 1.50306797 C64.00457277 4.42086144 61.53951513 7.3325833 59.27163696 10.45872498 C55.56581509 15.185668 52.83978216 18.57859649 46.94403076 20.25881958 C42.60996464 20.77067798 38.30162577 20.62516242 33.94921875 20.48046875 C32.34983982 20.47288702 30.75042426 20.47107777 29.15103149 20.47471619 C24.96727302 20.47092621 20.78771604 20.39841635 16.6050415 20.3079834 C9.90777538 20.17643539 3.20896516 20.15775834 -3.48936081 20.12576103 C-5.81251347 20.10590271 -8.13402218 20.06090881 -10.45669556 20.01075745 C-19.65192214 19.85976613 -28.40911683 19.8671371 -35.63671875 26.3828125 C-36.25160156 26.91261719 -36.86648437 27.44242188 -37.5 27.98828125 C-44.00002559 35.85233791 -43.74336257 43.09375266 -43.41272545 52.78162956 C-43.33445404 55.26981436 -43.2934131 57.75603708 -43.26387024 60.24525452 C-43.1795513 67.31705174 -43.0799802 74.38605913 -42.83422852 81.4543457 C-41.73714258 114.36419171 -41.73714258 114.36419171 -50.44868469 123.93885803 C-59.44595531 132.1953125 -59.44595531 132.1953125 -62.32421875 132.1953125 C-62.39380768 119.55590063 -62.44707531 106.91653453 -62.47965527 94.27696991 C-62.49529402 88.40755941 -62.51649983 82.53828024 -62.55053711 76.66894531 C-62.58319404 71.00200616 -62.60108523 65.33519313 -62.60885048 59.66816711 C-62.61438259 57.50887569 -62.62518543 55.34959096 -62.64140892 53.19035339 C-62.6632671 50.15995504 -62.66618213 47.13007421 -62.66479492 44.09960938 C-62.67558075 43.21199921 -62.68636658 42.32438904 -62.69747925 41.40988159 C-62.64719302 31.22111764 -58.5090691 24.10465991 -52.32421875 16.1953125 C-51.82277344 15.55335937 -51.32132813 14.91140625 -50.8046875 14.25 C-37.69635871 -0.55079655 -18.08631789 -0.10197496 0 0 Z " fill="#FEBE03" transform="translate(77.32421875,17.8046875)"/>
<path d="M0 0 C0.11635587 10.98837355 0.20494835 21.97659816 0.25906086 32.96546459 C0.28504521 38.06924034 0.32023706 43.17259155 0.37719727 48.27612305 C0.43191803 53.2104383 0.46150426 58.14434775 0.47438622 63.07894325 C0.48355472 64.95224702 0.5014569 66.82553107 0.52865028 68.6986599 C0.75234267 84.76017943 -1.85624766 98.27089634 -13.0625 110.5625 C-21.44606395 118.59520995 -30.16050806 122.16409469 -41.53222656 122.11352539 C-42.39112488 122.11367142 -43.25002319 122.11381744 -44.13494873 122.1139679 C-46.97019996 122.11327196 -49.80538526 122.10549445 -52.640625 122.09765625 C-54.60788945 122.09579094 -56.57515436 122.09436757 -58.54241943 122.09336853 C-63.71766444 122.08955227 -68.89288133 122.07972956 -74.06811523 122.06866455 C-79.35009379 122.0584313 -84.63207689 122.0538668 -89.9140625 122.04882812 C-100.27605401 122.03810651 -110.63802467 122.02104075 -121 122 C-120.05361552 120.88616855 -119.1058325 119.77352532 -118.1574707 118.66137695 C-117.6298262 118.04164505 -117.1021817 117.42191315 -116.55854797 116.78340149 C-114.53917226 114.47268811 -112.38664118 112.32669866 -110.1875 110.1875 C-107.20081215 107.37986825 -107.20081215 107.37986825 -105 104 C-104.24990662 103.99413376 -103.49981323 103.98826752 -102.72698975 103.98222351 C-95.60790778 103.92397134 -88.48913146 103.85171313 -81.37035751 103.76428509 C-77.71177179 103.71983166 -74.05329103 103.68052309 -70.39453125 103.65356445 C-66.85406916 103.62727826 -63.31401663 103.58670474 -59.77381134 103.53681374 C-57.78678238 103.51236362 -55.79959413 103.50216634 -53.81243896 103.49235535 C-43.99215961 103.33564198 -32.82692293 103.07401486 -25.3984375 95.80859375 C-20.38593833 89.32594818 -18.79246347 81.96349175 -19.06445312 73.91894531 C-19.23911351 67.88752146 -19.34963732 61.86098634 -19.40752411 55.82761002 C-19.44681097 52.19047995 -19.51617641 48.55911729 -19.65478516 44.92431641 C-20.63462022 18.21056346 -20.63462022 18.21056346 -11.86193848 8.71966553 C-2.52632738 0 -2.52632738 0 0 0 Z " fill="#FEBE03" transform="translate(157,40)"/>
<path d="M0 0 C3.10408807 -0.05807043 6.2080364 -0.09361914 9.3125 -0.125 C10.19357422 -0.14175781 11.07464844 -0.15851563 11.98242188 -0.17578125 C12.82998047 -0.18222656 13.67753906 -0.18867187 14.55078125 -0.1953125 C15.72120972 -0.21102295 15.72120972 -0.21102295 16.9152832 -0.22705078 C19 0 19 0 22 2 C22.92188461 4.76565382 23.11785222 6.38283702 23.09765625 9.23046875 C23.09443359 10.03291016 23.09121094 10.83535156 23.08789062 11.66210938 C23.07951172 12.49548828 23.07113281 13.32886719 23.0625 14.1875 C23.05798828 15.03248047 23.05347656 15.87746094 23.04882812 16.74804688 C23.03705403 18.83206155 23.0191189 20.91603977 23 23 C19.91698584 23.11644156 16.83453877 23.18732432 13.75 23.25 C12.44095703 23.30027344 12.44095703 23.30027344 11.10546875 23.3515625 C7.34044461 23.40904378 4.75355633 23.40855464 1.40625 21.59375 C-0.77926888 17.56268184 -0.42287599 13.75142491 -0.25 9.25 C-0.23195313 8.36183594 -0.21390625 7.47367187 -0.1953125 6.55859375 C-0.14827374 4.37129152 -0.08257009 2.18620184 0 0 Z " fill="#FE0101" transform="translate(74,79)"/>
</svg>
