<?xml version="1.0" encoding="utf-8"?>
<!-- Generator: Adobe Illustrator 28.0.0, SVG Export Plug-In . SVG Version: 6.00 Build 0)  -->
<svg version="1.1" id="Layer_1" xmlns="http://www.w3.org/2000/svg" xmlns:xlink="http://www.w3.org/1999/xlink" x="0px" y="0px"
	 viewBox="0 0 2000 1500" style="enable-background:new 0 0 2000 1500;" xml:space="preserve">
<rect x="0" y="0" style="fill:#FFFFFF;" width="2000" height="1500"/>
<g>
	<g>
		<g>
			<polygon style="fill:#9D83E8;" points="638.473,920.9 636.498,939.721 692.414,939.721 668.911,919.971 			"/>
		</g>
	</g>
	<g>
		<g>
			<path style="fill:#FFB197;" d="M706.295,590.79c-2.693-7.7-10.013-12.785-18.17-12.736c-20.048,0.122-37.28,3.758-48.205,6.785
				c-5.642,1.564-7.993,8.354-4.431,13c3.95,5.15,7.745,11.656,7.126,17.078c-1.239,10.843-4.337,29.432-4.337,29.432
				s-7.125-18.898-19.518-12.702c-12.392,6.196,0.929,38.725,17.659,25.713l-4.149,25.737c-0.568,3.524,0.454,7.117,2.825,9.785
				c6.113,6.881,19.843,17.912,40.45,9.793c2.72-1.072,4.645-3.55,4.959-6.457l2.701-24.986
				c19.055-3.58,28.577-27.092,28.419-47.485C711.512,609.366,708.94,598.355,706.295,590.79z"/>
		</g>
	</g>
	<g>
		<g>
			<path style="fill:#9D83E8;" d="M632.908,680.283c0,0-16.596,6.669-14.273,25.254c2.324,18.585,11.153,179.372,11.153,179.372
				l-6.971,49.762H480.883c-36.662,0-59.495-39.782-41.001-71.438l76.844-131.535c7.543-12.912,19.791-22.404,34.176-26.489
				l51.236-14.546c0,0,9.858-15.821,31.533-15.114L632.908,680.283z"/>
		</g>
	</g>
	<g>
		<g>
			<polygon style="fill:#FF9497;" points="534.757,868.175 537.067,834.713 518.347,864.477 			"/>
		</g>
	</g>
	<g>
		<g>
			<path style="fill:#9D83E8;" d="M798.369,850.879c-4.014-4.373-6.93-9.639-8.505-15.362l-23.673-85.983
				c-4.029-11.225-12.298-20.422-23.033-25.617l-36.384-17.608c-7.125-13.012-24.78-22.167-24.78-22.167l-0.762,7.047
				c0,0,8.735,6.452,9.665,14.349c0.837,7.111-26.499,158.465-31.945,188.502l28.218,0.553c5.831,0.114,11.509,1.727,16.527,4.626
				h12.946c2.054,0,4.057,0.474,5.869,1.318l9.225-42.11c0,0,21.854,40.184,44.529,59.372h19.192l12.854-56.086L798.369,850.879z"/>
		</g>
	</g>
	<g>
		<g>
			<path style="fill:#9D83E8;" d="M1189.511,190.374c-19.078-19.078-25.582-45.964-19.524-70.372H818.774
				c-21.191,0-38.53,17.338-38.53,38.53v242.922c0,21.192,17.339,38.53,38.53,38.53h333.369l49.962,49.559v-49.559h1.314
				c21.192,0,38.53-17.338,38.53-38.53v-189.36C1222.97,212.095,1203.991,204.854,1189.511,190.374z"/>
		</g>
	</g>
	<g>
		<g>
			<path style="fill:#F6F6F7;" d="M1397.949,502.288c1.697,10.899,6.005,19.502,9.341,24.808c2.361,3.755,1.704,8.685-1.601,11.644
				c-6.246,5.593-12.541,10.112-18.818,13.72l56.953,9.653c15.738,2.667,29.138,12.946,35.793,27.455l44.611,125.489l22.657,36.494
				h146.839V502.288H1397.949z"/>
		</g>
	</g>
	<g>
		<g>
			<rect x="1606.35" y="575.572" style="fill:#FFFFFF;" width="32.083" height="32.083"/>
		</g>
	</g>
	<g>
		<g>
			<rect x="1549.727" y="575.572" style="fill:#FFFFFF;" width="32.083" height="32.083"/>
		</g>
	</g>
	<g>
		<g>
			<polygon style="fill:#FFFFFF;" points="1504.906,660.705 1525.188,660.705 1525.188,628.621 1493.5,628.621 			"/>
		</g>
	</g>
	<g>
		<g>
			<rect x="1606.35" y="681.671" style="fill:#FFFFFF;" width="32.083" height="32.083"/>
		</g>
	</g>
	<g>
		<g>
			<rect x="1549.727" y="628.621" style="fill:#FFFFFF;" width="32.083" height="32.083"/>
		</g>
	</g>
	<g>
		<g>
			<path style="fill:#FFB197;" d="M1113.811,606.184l-10.384-13.937c1.118-8.635-3.559-21.097-6.173-29.6
				c-1.933-6.288-2.444-12.158-2.546-15.834l0.028-1.969c0.043-3.007-2.579-5.357-5.564-4.998c-3.684,0.443-7.328,2.674-7.51,7.016
				l-0.776,19.801l-23.642-35.584c-1.842-2.772-5.51-3.654-8.411-2.022l-0.169,0.095c-3.236,1.82-4.229,6.015-2.154,9.093
				l-5.666-8.51c-1.484-2.201-4.158-3.28-6.754-2.723l-0.072,0.015c-3.531,0.757-5.943,4.377-4.795,7.8
				c0.178,0.532,0.43,1.048,0.758,1.536l5.62,8.441c-1.497-2.219-4.245-3.35-6.824-2.632c-4.489,1.251-6.074,6.242-3.718,9.738
				l5.725,8.6c-1.984-2.947-6.317-3.533-9.299-1.603c-2.978,1.927-3.806,5.914-1.836,8.864l19.49,28.537l0-0.002
				c3.048,4.313,5.501,7.648,6.959,9.383c6.191,7.366,14.629,10.707,20.889,12.225l10.496,13.999L1113.811,606.184z"/>
		</g>
	</g>
	<g>
		<g>
			<path style="fill:#FFB197;" d="M1626.512,846.958l-1.855-0.66c-3.409-1.376-8.733-3.902-13.953-7.906
				c-7.059-5.414-17.109-14.142-25.591-16.105l-6.681-10.325c-9.918,10.422-28.701,18.569-38.553,22.348l8.474,13.182
				c-0.76,6.397-0.57,15.47,4.176,23.841c1.118,1.972,3.389,5.434,6.368,9.794l-0.002,0l19.952,28.216
				c2.078,2.875,6.104,3.489,8.948,1.369c2.848-2.123,3.81-6.388,1.739-9.275l6.064,8.365c2.455,3.428,7.685,3.682,10.423-0.09
				c1.572-2.166,1.47-5.136-0.088-7.313l5.953,8.21c0.342,0.478,0.738,0.894,1.175,1.246c2.808,2.269,7.042,1.27,8.982-1.775
				l0.039-0.063c1.427-2.239,1.349-5.121-0.197-7.279l-6.001-8.277c2.162,3.018,6.439,3.549,9.274,1.151l0.148-0.125
				c2.541-2.15,2.993-5.896,1.037-8.589l-25.109-34.564l18.829,6.175c4.133,1.342,7.494-1.295,9.194-4.594
				C1630.634,851.243,1629.345,847.966,1626.512,846.958z"/>
		</g>
	</g>
	<g>
		<g>
			<g>
				<path style="fill:#F6F6F7;" d="M1250.746,571.224l50.07-14.714c-7.522-3.013-13.95-6.407-18.925-9.373
					c-6.502-3.876-8.796-12.155-5.183-18.807c4.569-8.413,8.963-17.541,11.387-26.042h-42.723v71.141
					C1247.07,572.525,1248.864,571.776,1250.746,571.224z"/>
			</g>
		</g>
	</g>
	<g>
		<g>
			<path style="fill:#FFC71C;" d="M1300.817,556.51l-50.07,14.714c-8.955,2.632-16.065,9.464-19.051,18.308l-38.222,113.219
				l-75.282-99.669l-47.555,33.681l86.547,122.144c18.77,25.25,57.459,22.277,72.152-5.544l24.511-46.413
				c0.037,0.106,0.075,0.211,0.112,0.315c4.537,12.691,5.785,26.305,3.444,39.578c-9.135,51.784-29.639,150.459-29.639,150.459
				c20.447,11.153,47.496,15.959,47.496,15.959l22.309-147.311l12.119-216.165L1300.817,556.51z"/>
		</g>
	</g>
	<g>
		<g>
			<path style="fill:#FFC71C;" d="M1524.228,715.057l-44.611-125.489c-6.655-14.509-20.055-24.787-35.793-27.455l-56.953-9.653
				l-22.31-8.434l9.449,223.589l9.526,140.534c0,0,42.753,2.323,79.464-13.941l-32.529-162.685c0,0,8.829-55.261,8.365-86.861
				l27.156,80.564c2.621,7.658,6.031,15.022,10.175,21.975l57.313,89.417c0,0,37.176-12.082,48.329-28.812L1524.228,715.057z"/>
		</g>
	</g>
	<g>
		<g>
			<path style="fill:#4F667D;" d="M1383.537,908.15l-7.597-112.065c-41.317,5.359-82.709-1.501-82.709-1.501l0,0l0,0v0
				l-17.973,118.677c0,0-9.617-1.71-21.715-5.453l-0.551,26.863h191.329l-2.587-33.059
				C1411.574,909.67,1383.537,908.15,1383.537,908.15z"/>
		</g>
	</g>
	<g>
		<g>
			<path style="fill:#FFB197;" d="M1523.618,1407.236c-25.428-6.313-45.031-26.417-55.22-38.04
				c-4.872-5.558-7.082-12.381-7.867-20.042l-4.586-70.933c-17.857,6.748-40.422,4.066-51.578,2.051l7.904,56.609
				c0.894,8.633,0.879,17.33-0.034,25.961c-1.318,12.464-3.092,30.589-3.092,37.888c0,11.618,2.479,32.994,2.479,32.994h24.629
				v-22.77c0,0,21.841,22.77,34.853,22.77c13.012,0,72.029,0,72.029,0S1546.079,1412.812,1523.618,1407.236z"/>
		</g>
	</g>
	<g>
		<g>
			<path style="fill:#FFB197;" d="M1293.396,1336.881l5.371-51.87c-17.038,5.54-39.898,1.23-51.464-1.658l-2.167,65.802
				c-0.243,7.387-2.995,14.483-7.867,20.042c-10.189,11.623-29.791,31.726-55.22,38.04c-22.461,5.577-19.518,26.488-19.518,26.488
				s59.017,0,72.029,0c13.012,0,34.853-22.77,34.853-22.77v22.77h24.629c0,0,2.479-21.376,2.479-32.994
				c0-7.3-1.774-25.424-3.092-37.888C1292.517,1354.211,1292.502,1345.513,1293.396,1336.881z"/>
		</g>
	</g>
	<g>
		<g>
			<g>
				<polygon style="fill:#F6F6F7;" points="356.761,965.23 321.514,1433.724 343.457,1433.724 398.147,965.23 				"/>
			</g>
		</g>
	</g>
	<g>
		<g>
			<g>
				<polygon style="fill:#F6F6F7;" points="1643.239,965.23 1678.487,1433.724 1656.543,1433.724 1601.854,965.23 				"/>
			</g>
		</g>
	</g>
	<g>
		<g>
			<rect x="984.721" y="965.23" style="fill:#F6F6F7;" width="30.559" height="468.494"/>
		</g>
	</g>
	<g>
		<g>
			<path style="fill:#EF7756;" d="M651.318,659.603c-1.12-0.811-2.681-0.559-3.487,0.56c-0.809,1.118-0.558,2.679,0.56,3.487
				c11.677,8.445,22.598,12.698,32.56,12.698c0.638,0,1.264-0.051,1.894-0.086l0.544-5.031
				C673.891,672.028,663.123,668.139,651.318,659.603z"/>
		</g>
	</g>
	<g>
		<g>
			<path style="fill:#1C3C4F;" d="M618.945,631.646c12.392-6.196,19.518,12.702,19.518,12.702s3.098-18.588,4.337-29.432
				c0.62-5.422-3.175-11.927-7.126-17.078c-3.563-4.646-1.211-11.436,4.431-13c10.92-3.026,28.142-6.66,48.179-6.784
				c8.173-0.051,15.509,5.044,18.205,12.76c1.809,5.178,3.562,12.008,4.537,20.384c8.411-11.033,27.177-40.624-6.652-48.33
				c0,0-8.365-47.864-46.703-19.518c0,0-23.246,19.341-41.599,27.891c-9.928,4.625-16.272,14.646-16.213,25.598
				c0.077,14.385,2.841,32.237,14.524,41.358C614.948,635.32,616.395,632.921,618.945,631.646z"/>
		</g>
	</g>
	<g>
		<g>
			<polygon style="fill:#F6F6F7;" points="622.818,934.671 640.586,934.671 647.447,891.648 629.141,889.531 			"/>
		</g>
	</g>
	<g>
		<g>
			<g>
				<path style="fill:#4A3CA3;" d="M516.708,867.425c-0.475,0-0.955-0.135-1.381-0.418c-1.149-0.763-1.461-2.314-0.697-3.463
					c1.536-2.311,37.693-56.66,43.686-62.654c4.152-4.152,4.239-16.1,3.923-20.352c-0.102-1.376,0.929-2.574,2.303-2.677
					c1.385-0.101,2.575,0.929,2.677,2.303c0.136,1.798,1.138,17.75-5.372,24.259c-4.684,4.685-32.67,46.263-43.058,61.888
					C518.309,867.034,517.516,867.425,516.708,867.425z"/>
			</g>
		</g>
	</g>
	<g>
		<g>
			<path style="fill:#C59FF5;" d="M632.908,680.283l0.763-4.734c-21.675-0.708-31.533,15.114-31.533,15.114
				s-7.203,11.618-9.526,38.106c-2.323,26.488-3.253,41.359-3.253,41.359l17.194,10.223l-11.85,14.174l19.207,87.717l15.878,2.667
				c0,0-8.829-160.787-11.153-179.372C616.312,686.953,632.908,680.283,632.908,680.283z"/>
		</g>
	</g>
	<g>
		<g>
			<path style="fill:#C59FF5;" d="M681.994,684.141l-0.762,7.047c0,0,8.735,6.452,9.665,14.349
				c0.837,7.111-26.499,158.465-31.945,188.502l13.421,0.263l31.323-93.333l-12.83-13.803l16.827-6.816
				c0,0,0.476-18.279,0.871-36.866c0.395-18.588-1.789-37.177-1.789-37.177C699.649,693.296,681.994,684.141,681.994,684.141z"/>
		</g>
	</g>
	<g>
		<g>
			<path style="fill:#E4E6EC;" d="M690.897,705.537c-0.929-7.897-9.665-14.349-9.665-14.349l-0.544,5.029
				c-0.314,2.907-2.239,5.385-4.959,6.457c-20.607,8.119-34.337-2.912-40.45-9.793c-2.371-2.669-3.393-6.262-2.825-9.785
				l0.453-2.813h0c0,0-3.177,1.277-6.556,4.269c-0.483,0.427-0.97,0.89-1.452,1.389c-0.724,0.748-1.437,1.578-2.111,2.494
				c-0.225,0.305-0.445,0.62-0.66,0.945c-0.43,0.649-0.837,1.337-1.214,2.065c-1.885,3.641-3.007,8.284-2.281,14.092
				c0.254,2.033,0.586,5.766,0.976,10.805c0.111,1.44,0.227,2.986,0.348,4.629c0.06,0.822,0.121,1.668,0.184,2.537
				c0.124,1.738,0.253,3.569,0.385,5.484c0.264,3.829,0.542,7.991,0.831,12.413c0.144,2.211,0.291,4.487,0.44,6.818
				c0.373,5.829,0.759,12.005,1.151,18.385c0.706,11.483,1.431,23.626,2.134,35.584c0.078,1.329,0.156,2.656,0.233,3.978
				c2.4,41.015,4.472,78.738,4.472,78.738l-0.647,4.622l18.306,2.117l-0.344,2.16l11.849,0.232
				C664.398,864.002,691.734,712.648,690.897,705.537z"/>
		</g>
	</g>
	<g>
		<g>
			<path style="fill:#F6F6F7;" d="M635.279,692.882c-2.371-2.669-3.393-6.262-2.825-9.785l0.453-2.813h0
				c0,0-3.177,1.277-6.556,4.269c-0.483,0.427-0.97,0.89-1.452,1.389c-0.724,0.748-1.437,1.578-2.111,2.494
				c-0.225,0.305-0.445,0.62-0.66,0.945c-0.43,0.649-0.837,1.337-1.214,2.065c-1.885,3.641-3.007,8.284-2.281,14.092
				c0.038,0.302,0.078,0.655,0.119,1.031c9.344,10.579,22.845,21,22.845,21l14.546-22.499
				C646.209,703.365,639.186,697.279,635.279,692.882z"/>
		</g>
	</g>
	<g>
		<g>
			<path style="fill:#F6F6F7;" d="M690.897,705.537c-0.929-7.897-9.665-14.349-9.665-14.349l-0.544,5.029
				c-0.314,2.907-2.239,5.385-4.959,6.457c-2.424,0.955-4.75,1.637-6.983,2.1l7.667,20.587c0,0,6.475-1.783,12.791-5.519
				C690.393,711.906,691.036,706.719,690.897,705.537z"/>
		</g>
	</g>
	<g>
		<g>
			<path style="fill:#FF8387;" d="M668.747,704.774c0.002,0,0.005-0.001,0.007-0.002c-4.619,0.959-8.824,0.947-12.608,0.297
				l-8.545,13.217l4.494,9.823l15.103,0.387l6.338-10.865L668.747,704.774z"/>
		</g>
	</g>
	<g>
		<g>
			<path style="fill:#FF9497;" d="M667.197,728.498l-15.103-0.387l-24.763,112.982c1.437,25.243,2.457,43.817,2.457,43.817
				l-0.647,4.622l18.306,2.117l-0.344,2.16l11.849,0.232c2.007-11.068,6.986-38.611,12.432-69.336L667.197,728.498z"/>
		</g>
	</g>
	<g>
		<g>
			<path style="fill:#4F667D;" d="M822.685,995.813l-81.136-15.408c-36.1-0.741-58.17,15.618-65.657,22.302
				c26.745,10.749,43.125,37.959,39.778,66.641l-1.536,13.163c34.246,6.127,80.159,5.472,80.159,5.472l-38.106,254.657h77.334
				l57.248-241.847C902.133,1052.795,871.147,1005.016,822.685,995.813z"/>
		</g>
	</g>
	<g>
		<g>
			<path style="fill:#9D83E8;" d="M675.298,1002.462c0.201,0.078,0.395,0.167,0.595,0.247c7.487-6.685,29.558-23.043,65.657-22.302
				l-8.288-15.176h-85.815l22.3,35.135C671.63,1001.058,673.49,1001.756,675.298,1002.462z"/>
		</g>
	</g>
	<g>
		<g>
			<path style="fill:#9D83E8;" d="M644.34,992.37c-0.004-0.001-0.008-0.002-0.012-0.003c1.242-10.54,3.12-27.137,3.12-27.137H512.46
				c-6.254,25.368-3.495,49.022-3.495,49.022l13.476-8.055C560.619,980.167,606.383,982.495,644.34,992.37z"/>
		</g>
	</g>
	<g>
		<g>
			<path style="fill:#4F667D;" d="M669.747,1000.365l-22.3-35.136c0,0-1.877,16.598-3.12,27.137
				C653.308,994.703,661.845,997.459,669.747,1000.365z"/>
		</g>
	</g>
	<g>
		<g>
			<g>
				<path style="fill:#FF9497;" d="M714.134,1082.512l-3.35,28.707h46.151c13.264,0,24.646-10.074,25.567-23.272
					C766.62,1087.727,737.632,1086.716,714.134,1082.512z"/>
			</g>
		</g>
		<g>
			<g>
				<path style="fill:#FF9497;" d="M605.159,1082.873c0,0-29.276-2.323-58.088-10.224c-28.812-7.9-24.629-66.452-24.629-66.452
					l-13.476,8.055c0,0-2.759-23.654,3.495-49.022h-55.309c-2.227,17.493-8.154,76.69,7.514,116.05
					c7.231,18.165,24.986,29.94,44.538,29.94h95.956V1082.873z"/>
			</g>
		</g>
	</g>
	<g>
		<g>
			<g>
				<path style="fill:#E85D62;" d="M515.473,1069.416c-0.175,0-0.352-0.018-0.53-0.057c-16.821-3.633-28.603-16.854-34.073-38.235
					c-4.039-15.788-3.246-30.295-3.21-30.905c0.08-1.377,1.277-2.442,2.638-2.347c1.377,0.08,2.429,1.261,2.349,2.638
					c-0.033,0.561-2.82,56.154,33.351,63.968c1.348,0.291,2.205,1.62,1.914,2.968
					C517.66,1068.616,516.624,1069.416,515.473,1069.416z"/>
			</g>
		</g>
	</g>
	<g>
		<g>
			<path style="fill:#FF8387;" d="M605.159,1111.22h-95.956c-8.758,0-17.146-2.377-24.398-6.619
				c0.345,3.259,1.068,7.779,2.605,12.386c3.566,10.688,13.733,17.778,24.999,17.778h92.75V1111.22z"/>
		</g>
	</g>
	<g>
		<g>
			<path style="fill:#FF8387;" d="M756.935,1111.22h-46.151l-2.747,23.545h27.295c10.088,0,19.401-5.694,23.718-14.812
				c1.333-2.816,2.551-5.959,3.457-9.36C760.704,1110.989,758.843,1111.22,756.935,1111.22z"/>
		</g>
	</g>
	<g>
		<g>
			<path style="fill:#E4E6EC;" d="M879.804,1408.422c-6.36-8.167-15.566-13.963-26.144-15.946
				c-13.773-2.582-28.563-6.364-33.576-11.263c-8.161-7.975-1.52-30.002,1.493-38.57h-58.269l-15.253,91.082H887.35
				C887.883,1424.666,885.379,1415.581,879.804,1408.422z"/>
		</g>
	</g>
	<g>
		<g>
			<path style="fill:#E4E6EC;" d="M699.958,1392.476c-13.773-2.582-19.053-6.364-24.066-11.263
				c-8.161-7.975-5.307-30.002-2.294-38.57h-58.269l-11.466,91.082h123.203l-1.945-8.409
				C721.246,1408.557,716.864,1395.645,699.958,1392.476z"/>
		</g>
	</g>
	<g>
		<g>
			<path style="fill:#F4A37A;" d="M512.409,1134.765c-2.513,0-4.965-0.371-7.308-1.038l-40.203,299.997h25.806l54.203-298.959
				H512.409z"/>
		</g>
	</g>
	<g>
		<g>
			<path style="fill:#F4A37A;" d="M763.425,1294.276l-21.489-160.356c-2.132,0.544-4.346,0.844-6.603,0.844h-27.295l-2.324,19.913
				l46.303,255.388l11.291-67.424h-7.121L763.425,1294.276z"/>
		</g>
	</g>
	<g>
		<g>
			<g>
				<path style="fill:#EF7756;" d="M1085.803,600.515c-0.531,0-1.066-0.168-1.519-0.516c-6.353-4.876-9.948-10.586-10.686-16.969
					c-1.142-9.885,5.089-17.624,5.355-17.949c0.873-1.068,2.447-1.225,3.515-0.35c1.066,0.873,1.224,2.444,0.354,3.511
					c-0.099,0.124-5.17,6.536-4.256,14.261c0.589,4.971,3.536,9.524,8.759,13.534c1.094,0.84,1.301,2.408,0.461,3.502
					C1087.294,600.18,1086.552,600.515,1085.803,600.515z"/>
			</g>
		</g>
	</g>
	<g>
		<g>
			<g>
				<path style="fill:#EF7756;" d="M1064.516,567.786c-0.808,0-1.6-0.391-2.081-1.114l-18.004-27.042
					c-0.764-1.148-0.454-2.699,0.695-3.463c1.147-0.766,2.699-0.454,3.463,0.695l18.004,27.042c0.764,1.148,0.454,2.699-0.695,3.463
					C1065.473,567.651,1064.992,567.786,1064.516,567.786z"/>
			</g>
		</g>
	</g>
	<g>
		<g>
			<g>
				<path style="fill:#EF7756;" d="M1054.024,574.973c-0.808,0-1.6-0.391-2.082-1.114l-18.422-27.671
					c-0.764-1.148-0.454-2.699,0.695-3.463c1.148-0.765,2.698-0.454,3.463,0.695l18.422,27.671c0.764,1.148,0.454,2.699-0.695,3.463
					C1054.981,574.838,1054.5,574.973,1054.024,574.973z"/>
			</g>
		</g>
	</g>
	<g>
		<g>
			<g>
				<path style="fill:#EF7756;" d="M1043.498,582.102c-0.808,0-1.6-0.391-2.081-1.114l-12.712-19.094
					c-0.764-1.148-0.454-2.699,0.695-3.463c1.147-0.766,2.699-0.453,3.463,0.695l12.712,19.094c0.764,1.148,0.454,2.699-0.695,3.463
					C1044.454,581.967,1043.974,582.102,1043.498,582.102z"/>
			</g>
		</g>
	</g>
	<g>
		<g>
			<g>
				<path style="fill:#EF7756;" d="M1593.984,855.886c-3.185,0-6.955-0.556-10.631-2.429c-5.726-2.917-9.824-8.276-12.18-15.93
					c-0.406-1.319,0.334-2.716,1.652-3.122c1.317-0.407,2.717,0.334,3.122,1.652c1.943,6.313,5.197,10.669,9.673,12.949
					c7.001,3.565,14.725,0.989,14.803,0.964c1.307-0.447,2.725,0.249,3.173,1.553c0.447,1.305-0.248,2.725-1.553,3.173
					C1601.811,854.776,1598.482,855.886,1593.984,855.886z"/>
			</g>
		</g>
	</g>
	<g>
		<g>
			<g>
				<path style="fill:#EF7756;" d="M1615.887,896.958c-0.773,0-1.536-0.358-2.025-1.032l-19.07-26.302
					c-0.81-1.116-0.561-2.678,0.556-3.488c1.117-0.811,2.678-0.562,3.488,0.556l19.07,26.302c0.81,1.116,0.561,2.678-0.556,3.488
					C1616.908,896.803,1616.395,896.958,1615.887,896.958z"/>
			</g>
		</g>
	</g>
	<g>
		<g>
			<g>
				<path style="fill:#EF7756;" d="M1605.936,904.897c-0.774,0-1.536-0.358-2.025-1.032l-19.512-26.913
					c-0.81-1.116-0.561-2.678,0.556-3.488c1.119-0.81,2.678-0.56,3.488,0.556l19.512,26.913c0.81,1.116,0.561,2.678-0.556,3.488
					C1606.956,904.742,1606.444,904.897,1605.936,904.897z"/>
			</g>
		</g>
	</g>
	<g>
		<g>
			<g>
				<path style="fill:#EF7756;" d="M1589.537,903.935c-0.774,0-1.536-0.358-2.025-1.032l-13.464-18.571
					c-0.81-1.116-0.561-2.678,0.556-3.488c1.118-0.81,2.678-0.561,3.488,0.556l13.464,18.571c0.81,1.116,0.561,2.678-0.556,3.488
					C1590.557,903.781,1590.045,903.935,1589.537,903.935z"/>
			</g>
		</g>
	</g>
	<g>
		<g>
			<path style="fill:#4A3CA3;" d="M752.799,785.735c0.295-1.347-0.558-2.679-1.906-2.974c-1.345-0.291-2.678,0.559-2.974,1.906
				l-16.182,73.759c0,0,1.351,2.482,3.724,6.502L752.799,785.735z"/>
		</g>
	</g>
	<g>
		<g>
			<g>
				<path style="fill:#4A3CA3;" d="M554.275,747.532c-0.946,0-1.851-0.54-2.271-1.455c-3.797-8.263-9.381-16.04-9.437-16.117
					c-0.807-1.119-0.555-2.68,0.563-3.487c1.12-0.807,2.679-0.556,3.487,0.563c0.24,0.332,5.92,8.237,9.925,16.954
					c0.576,1.254,0.027,2.737-1.226,3.312C554.979,747.458,554.624,747.532,554.275,747.532z"/>
			</g>
		</g>
	</g>
	<g>
		<g>
			<path style="fill:#C46C3F;" d="M603.863,1433.724h123.203l-1.945-8.409c-3.875-16.758-8.257-29.67-25.163-32.84
				c-13.773-2.582-19.053-6.364-24.066-11.263c-3.995-3.904-5.341-11.177-5.33-18.588h-57.748L603.863,1433.724z"/>
		</g>
	</g>
	<g>
		<g>
			<path style="fill:#C46C3F;" d="M879.804,1408.422c-6.36-8.167-15.566-13.963-26.144-15.946
				c-13.773-2.582-28.563-6.364-33.576-11.263c-3.995-3.904-4.433-11.177-3.496-18.588h-56.627l-11.907,71.099H887.35
				C887.883,1424.666,885.379,1415.581,879.804,1408.422z"/>
		</g>
	</g>
	<g>
		<g>
			<path style="fill:#1C3C4F;" d="M1407.29,527.097c-4.363-6.939-10.404-19.499-10.067-35.483
				c0.498-23.663,2.655-109.365-93.578-91.773c-9.189,1.68-15.026,10.747-12.941,19.853c0.502,2.192,1.078,4.372,1.732,6.373
				c0,0-22.622,13.824-15.944,29.34c5.034,11.696,10.175,17.258,12.404,25.594c0.851-24.682,7.389-38.278,9.775-42.453
				c0,0,23.979,36.501,63.655,32.179c0,0-3.143,9.428-3.143,18.071c0,0,10.017-8.839,16.106-3.143
				c5.658,5.293,3.005,27.547-13.159,25.626l2.431,32.745l22.31,8.434c6.277-3.608,12.572-8.127,18.818-13.72
				C1408.994,535.781,1409.651,530.852,1407.29,527.097z"/>
		</g>
	</g>
	<g>
		<g>
			<path style="fill:#1C3C4F;" d="M1289.514,496.229c-1.669,10.075-7.129,21.649-12.806,32.101
				c-3.613,6.652-1.318,14.931,5.183,18.807c4.976,2.966,11.403,6.36,18.925,9.373l8.87-6.724l2.997-20.884
				C1300.172,525.097,1291.876,512.602,1289.514,496.229z"/>
		</g>
	</g>
	<g>
		<g>
			<path style="fill:#382C25;" d="M1362.132,512.733c-0.057,0-0.114-0.003-0.173-0.01c-1.343-0.16-2.756-0.474-4.2-0.936
				c-0.763-0.244-1.184-1.061-0.94-1.824c0.245-0.763,1.062-1.184,1.824-0.94c1.268,0.405,2.499,0.681,3.658,0.818
				c0.795,0.094,1.364,0.816,1.27,1.612C1363.484,512.19,1362.857,512.733,1362.132,512.733z"/>
		</g>
	</g>
	<g>
		<g>
			<path style="fill:#FFB197;" d="M1364.561,544.027l-2.431-32.745c16.164,1.921,18.817-20.333,13.159-25.626
				c-6.089-5.696-16.106,3.143-16.106,3.143c0-8.643,3.143-18.071,3.143-18.071c-39.676,4.322-63.655-32.179-63.655-32.179
				c-2.554,4.469-9.87,19.724-9.87,47.827c0,21.108,8.959,37.988,23.882,42.526l-2.997,20.884l-12.119,216.165l-4.336,28.633
				c0,0,41.392,6.86,82.709,1.5l-1.93-28.469L1364.561,544.027z"/>
		</g>
	</g>
	<g>
		<g>
			<path style="fill:#EF7756;" d="M1354.325,519.223c-0.749-1.16-2.296-1.492-3.453-0.742
				c-13.757,8.891-26.858,12.427-38.189,10.422l-0.711,4.956c2.283,0.394,4.615,0.616,7.004,0.616
				c10.753,0,22.511-3.981,34.607-11.798C1354.742,521.927,1355.074,520.382,1354.325,519.223z"/>
		</g>
	</g>
	<g>
		<g>
			<g>
				<path style="fill:#F99132;" d="M1253.846,706.95c-5.984-20.158-10.418-49.962-2.652-86.892c0.284-1.35-0.58-2.674-1.93-2.958
					c-1.353-0.286-2.674,0.581-2.958,1.93c-8.579,40.791-2.541,73.493,4.26,94.132L1253.846,706.95
					C1253.846,706.95,1253.815,706.863,1253.846,706.95z"/>
			</g>
		</g>
	</g>
	<g>
		<g>
			<path style="fill:#F99132;" d="M1199.863,720.02c0.212,1.213,1.267,2.068,2.457,2.068c0.143,0,0.288-0.013,0.433-0.038
				c1.359-0.237,2.268-1.532,2.03-2.891c-1.41-8.069-4.598-15.818-9.228-22.577l-2.082,6.168
				C1196.59,708.108,1198.797,713.917,1199.863,720.02z"/>
		</g>
	</g>
	<g>
		<g>
			<g>
				<path style="fill:#F99132;" d="M1447.24,604.021c-0.325,0-0.655-0.063-0.972-0.198c-1.27-0.537-1.864-2.003-1.327-3.273
					c3.473-8.21,8.715-15.648,8.937-15.961c0.798-1.126,2.356-1.391,3.482-0.594c1.125,0.797,1.392,2.355,0.595,3.482
					c-0.051,0.072-5.157,7.323-8.413,15.02C1449.137,603.449,1448.213,604.021,1447.24,604.021z"/>
			</g>
		</g>
	</g>
	<g>
		<path style="fill:#F6F6F7;" d="M1374.287,771.694l-0.276-4.078l-6.76-159.961c-28.537,15.821-52.516,5.103-60.824,0.284
			l-8.859,158.011l-0.694,4.58l-3.643,24.054c0,0,41.392,6.86,82.709,1.501L1374.287,771.694z"/>
	</g>
	<g>
		<g>
			<g>
				<path style="fill:#1C3C4F;" d="M1345.229,936.744c-1.208,0-2.27-0.878-2.464-2.109l-8.385-53.2
					c-0.563-3.569-3.172-6.516-6.647-7.507l-9.361-2.668c-1.327-0.378-2.095-1.759-1.717-3.086c0.378-1.326,1.764-2.094,3.086-1.717
					l9.361,2.668c5.339,1.522,9.348,6.049,10.213,11.534l8.384,53.2c0.215,1.363-0.716,2.641-2.079,2.856
					C1345.489,936.734,1345.358,936.744,1345.229,936.744z"/>
			</g>
		</g>
	</g>
	<g>
		<g>
			<path style="fill:#1C3C4F;" d="M1269.414,1410.954v22.77h24.629c0,0,2.479-21.376,2.479-32.994c0-7-1.63-23.942-2.927-36.313
				l-5.1,0.096c-8.267,0.155-16.171,3.41-22.135,9.137c-9.2,8.836-23.808,22.004-35.587,28.665
				c-14.587,8.249-24.762,0.488-28.533-3.327c-6.21,3.517-12.954,6.452-20.19,8.248c-22.461,5.577-19.518,26.488-19.518,26.488
				s59.017,0,72.029,0C1247.573,1433.724,1269.414,1410.954,1269.414,1410.954z"/>
		</g>
	</g>
	<g>
		<g>
			<path style="fill:#1C3C4F;" d="M1436.254,1410.954v22.77h-24.629c0,0-2.479-21.376-2.479-32.994c0-7,1.63-23.942,2.927-36.313
				l5.1,0.096c8.267,0.155,16.171,3.41,22.135,9.137c9.2,8.836,23.808,22.004,35.587,28.665c14.588,8.249,24.762,0.488,28.533-3.327
				c6.21,3.517,12.954,6.452,20.191,8.248c22.46,5.577,19.518,26.488,19.518,26.488s-59.018,0-72.029,0
				S1436.254,1410.954,1436.254,1410.954z"/>
		</g>
	</g>
	<g>
		<g>
			<g>
				<path style="fill:#4F667D;" d="M1251.842,965.23l-11.899,316.072c0,0,44.147,14.406,66.917,0l33.343-316.072H1251.842z"/>
			</g>
		</g>
		<g>
			<g>
				<path style="fill:#4F667D;" d="M1348.212,965.23l49.266,313.593c0,0,41.823,10.843,66.453-4.492l-17.845-309.101H1348.212z"/>
			</g>
		</g>
	</g>
	<g>
		<g>
			<g>
				<path style="fill:#91DFF2;" d="M968.967,484.783H776.786c-13.063,0-23.752,10.689-23.752,23.752v143.732
					c0,13.064,10.688,23.752,23.752,23.752h5.051v35.825l36.116-35.825h151.014c13.063,0,23.752-10.688,23.752-23.752V508.535
					C992.719,495.472,982.031,484.783,968.967,484.783z"/>
			</g>
		</g>
	</g>
	<g>
		<g>
			<path style="fill:#91DFF2;" d="M1030.224,903.106h162.035v31.565h-162.035c-8.716,0-15.782-7.066-15.782-15.782
				C1014.442,910.172,1021.508,903.106,1030.224,903.106z"/>
		</g>
	</g>
	<g>
		<g>
			<path style="fill:#FF8B7E;" d="M1051.072,871.541h162.035v31.565h-162.035c-8.716,0-15.783-7.066-15.783-15.782v0
				C1035.29,878.607,1042.356,871.541,1051.072,871.541z"/>
		</g>
	</g>
	<g>
		<g>
			<path style="fill:#FFE91D;" d="M1051.072,839.976h162.035v31.565h-162.035c-8.716,0-15.783-7.066-15.783-15.782v0
				C1035.29,847.042,1042.356,839.976,1051.072,839.976z"/>
		</g>
	</g>
	<g>
		<g>
			<rect x="1015.656" y="241.238" style="fill:#F6F6F7;" width="21.491" height="136.919"/>
		</g>
	</g>
	<g>
		<g>
			<rect x="1063.943" y="267.115" style="fill:#F6F6F7;" width="21.491" height="111.042"/>
		</g>
	</g>
	<g>
		<g>
			<rect x="1112.23" y="296.531" style="fill:#F6F6F7;" width="21.491" height="81.627"/>
		</g>
	</g>
	<g>
		<g>
			<rect x="1160.518" y="320.833" style="fill:#F6F6F7;" width="21.491" height="57.324"/>
		</g>
	</g>
	<g>
		<g>
			<g>
				<path style="fill:#91DFF2;" d="M1198.251,287.32c-0.103,0-0.208-0.007-0.313-0.02c-96.559-12.075-172.87-100.311-173.63-101.201
					c-0.895-1.049-0.771-2.625,0.278-3.521c1.05-0.894,2.626-0.771,3.521,0.277c0.748,0.876,75.839,87.656,170.45,99.488
					c1.369,0.171,2.34,1.42,2.168,2.788C1200.568,286.395,1199.492,287.32,1198.251,287.32z"/>
			</g>
		</g>
	</g>
	<g>
		<g>
			<g>
				<path style="fill:#91DFF2;" d="M1021.635,202.918c-0.021,0-0.042,0-0.063-0.001c-1.379-0.035-2.469-1.181-2.434-2.56
					l0.507-20.133c0.035-1.379,1.163-2.49,2.56-2.434l20.133,0.506c1.379,0.035,2.469,1.181,2.434,2.56
					c-0.034,1.379-1.173,2.472-2.56,2.434l-17.636-0.443l-0.444,17.636C1024.097,201.84,1022.986,202.918,1021.635,202.918z"/>
			</g>
		</g>
	</g>
	<g>
		<g>
			<g>
				<path style="fill:#E4E6EC;" d="M648.573,493.942c-0.746,0-1.484-0.333-1.976-0.968l-11.265-14.541
					c-0.846-1.09-0.646-2.659,0.445-3.504c1.089-0.845,2.66-0.647,3.504,0.445l9.736,12.566l12.567-9.735
					c1.089-0.846,2.66-0.646,3.504,0.445c0.846,1.09,0.646,2.659-0.445,3.504l-14.541,11.265
					C649.646,493.771,649.107,493.942,648.573,493.942z"/>
			</g>
		</g>
	</g>
	<g>
		<g>
			<circle style="fill:#AFE02E;" cx="497.003" cy="575.158" r="52.431"/>
		</g>
	</g>
	<g>
		<g>
			<g>
				<path style="fill:#FFFFFF;" d="M493.811,596.449c-2.208,0-4.326-0.876-5.888-2.439l-14.93-14.93
					c-3.252-3.251-3.252-8.523,0-11.773c3.252-3.252,8.523-3.252,11.775,0l9.042,9.041l15.678-15.678
					c3.252-3.252,8.523-3.252,11.775,0c3.252,3.251,3.252,8.523,0,11.773l-21.565,21.566
					C498.137,595.572,496.019,596.449,493.811,596.449z"/>
			</g>
		</g>
	</g>
	<g>
		<g>
			<circle style="fill:#E4E6EC;" cx="1505.774" cy="305.291" r="92.188"/>
		</g>
	</g>
	<g>
		<g>
			<circle style="fill:#FFFFFF;" cx="1505.774" cy="305.291" r="75.001"/>
		</g>
	</g>
	<g>
		<g>
			<path style="fill:#F6F6F7;" d="M1476.168,747.202c-4.144-6.953-7.554-14.318-10.175-21.975l-27.156-80.564
				c0.465,31.6-8.365,86.861-8.365,86.861l4.005,20.027h44.479L1476.168,747.202z"/>
		</g>
	</g>
	<g>
		<g>
			<g>
				<path style="fill:#E4E6EC;" d="M1646.792,536.556h-212.989c-1.38,0-2.498-1.118-2.498-2.498s1.118-2.498,2.498-2.498h212.989
					c1.38,0,2.498,1.118,2.498,2.498S1648.172,536.556,1646.792,536.556z"/>
			</g>
		</g>
	</g>
	<g>
		<g>
			<rect x="856.762" y="188.448" style="fill:#C59FF5;" width="117.737" height="20.862"/>
		</g>
	</g>
	<g>
		<g>
			<g>
				<path style="fill:#F6F6F7;" d="M973.142,239.14H862.492c-1.38,0-2.498-1.118-2.498-2.498s1.118-2.498,2.498-2.498h110.651
					c1.38,0,2.498,1.118,2.498,2.498S974.522,239.14,973.142,239.14z"/>
			</g>
		</g>
	</g>
	<g>
		<g>
			<g>
				<path style="fill:#F6F6F7;" d="M956.486,259.884h-93.994c-1.38,0-2.498-1.118-2.498-2.498c0-1.38,1.118-2.498,2.498-2.498
					h93.994c1.38,0,2.498,1.118,2.498,2.498C958.983,258.766,957.865,259.884,956.486,259.884z"/>
			</g>
		</g>
	</g>
	<g>
		<g>
			<g>
				<path style="fill:#F6F6F7;" d="M973.142,280.627H862.492c-1.38,0-2.498-1.118-2.498-2.498s1.118-2.498,2.498-2.498h110.651
					c1.38,0,2.498,1.118,2.498,2.498S974.522,280.627,973.142,280.627z"/>
			</g>
		</g>
	</g>
	<g>
		<g>
			<g>
				<path style="fill:#F6F6F7;" d="M956.486,301.371h-93.994c-1.38,0-2.498-1.118-2.498-2.498c0-1.38,1.118-2.498,2.498-2.498
					h93.994c1.38,0,2.498,1.118,2.498,2.498C958.983,300.253,957.865,301.371,956.486,301.371z"/>
			</g>
		</g>
	</g>
	<g>
		<g>
			<g>
				<path style="fill:#F6F6F7;" d="M973.142,322.115H862.492c-1.38,0-2.498-1.118-2.498-2.498s1.118-2.498,2.498-2.498h110.651
					c1.38,0,2.498,1.118,2.498,2.498S974.522,322.115,973.142,322.115z"/>
			</g>
		</g>
	</g>
	<g>
		<g>
			<g>
				<path style="fill:#F6F6F7;" d="M956.486,342.859h-93.994c-1.38,0-2.498-1.118-2.498-2.498s1.118-2.498,2.498-2.498h93.994
					c1.38,0,2.498,1.118,2.498,2.498S957.865,342.859,956.486,342.859z"/>
			</g>
		</g>
	</g>
	<g>
		<g>
			<g>
				<path style="fill:#F6F6F7;" d="M973.142,363.602H862.492c-1.38,0-2.498-1.118-2.498-2.498c0-1.38,1.118-2.498,2.498-2.498
					h110.651c1.38,0,2.498,1.118,2.498,2.498C975.64,362.484,974.522,363.602,973.142,363.602z"/>
			</g>
		</g>
	</g>
	<g>
		<g>
			<g>
				<path style="fill:#F6F6F7;" d="M956.486,384.346h-93.994c-1.38,0-2.498-1.118-2.498-2.498s1.118-2.498,2.498-2.498h93.994
					c1.38,0,2.498,1.118,2.498,2.498S957.865,384.346,956.486,384.346z"/>
			</g>
		</g>
	</g>
	<g>
		<g>
			<g>
				<path style="fill:#F6F6F7;" d="M838.327,247.773c-0.639,0-1.278-0.244-1.766-0.732l-6.708-6.708
					c-0.976-0.975-0.976-2.557,0-3.532c0.976-0.976,2.556-0.976,3.532,0l4.942,4.942l6.867-6.867c0.976-0.976,2.556-0.976,3.532,0
					c0.976,0.975,0.976,2.557,0,3.532l-8.633,8.633C839.605,247.529,838.966,247.773,838.327,247.773z"/>
			</g>
		</g>
	</g>
	<g>
		<g>
			<g>
				<path style="fill:#F6F6F7;" d="M838.327,289.261c-0.639,0-1.278-0.244-1.766-0.732l-6.708-6.708
					c-0.976-0.975-0.976-2.557,0-3.532c0.976-0.976,2.556-0.976,3.532,0l4.942,4.942l6.867-6.867c0.976-0.976,2.556-0.976,3.532,0
					c0.976,0.975,0.976,2.557,0,3.532l-8.633,8.633C839.605,289.017,838.966,289.261,838.327,289.261z"/>
			</g>
		</g>
	</g>
	<g>
		<g>
			<g>
				<path style="fill:#F6F6F7;" d="M838.327,330.748c-0.639,0-1.278-0.244-1.766-0.732l-6.708-6.708
					c-0.976-0.975-0.976-2.557,0-3.532c0.976-0.976,2.556-0.976,3.532,0l4.942,4.942l6.867-6.867c0.976-0.976,2.556-0.976,3.532,0
					c0.976,0.975,0.976,2.557,0,3.532l-8.633,8.633C839.605,330.504,838.966,330.748,838.327,330.748z"/>
			</g>
		</g>
	</g>
	<g>
		<g>
			<g>
				<path style="fill:#F6F6F7;" d="M838.327,372.236c-0.639,0-1.278-0.244-1.766-0.732l-6.708-6.707
					c-0.976-0.975-0.976-2.556,0-3.532c0.974-0.976,2.556-0.976,3.532,0l4.942,4.941l6.867-6.867c0.976-0.976,2.556-0.976,3.532,0
					c0.976,0.975,0.976,2.557,0,3.532l-8.633,8.633C839.605,371.992,838.966,372.236,838.327,372.236z"/>
			</g>
		</g>
	</g>
	<g>
		<g>
			<g>
				<g>
					<path style="fill:#E4E6EC;" d="M649.167,488.975c-0.161,0.01-0.326,0.006-0.493-0.017c-1.367-0.181-2.327-1.438-2.145-2.806
						c0.624-4.671,1.442-9.376,2.431-13.983c0.289-1.35,1.617-2.215,2.966-1.919c1.349,0.288,2.207,1.617,1.918,2.965
						c-0.961,4.481-1.756,9.057-2.362,13.598C651.32,488.014,650.331,488.901,649.167,488.975z M655.028,461.622
						c-0.286,0.018-0.582-0.012-0.872-0.099c-1.322-0.394-2.075-1.785-1.681-3.107c1.345-4.517,2.886-9.036,4.577-13.432
						c0.495-1.29,1.94-1.931,3.228-1.434c1.288,0.494,1.93,1.941,1.434,3.227c-1.646,4.275-3.143,8.67-4.452,13.065
						C656.955,460.873,656.043,461.557,655.028,461.622z M665.072,435.518c-0.411,0.026-0.834-0.048-1.233-0.239
						c-1.245-0.593-1.773-2.085-1.179-3.33c2.031-4.256,4.253-8.482,6.603-12.559c0.69-1.193,2.217-1.605,3.411-0.916
						c1.195,0.689,1.605,2.216,0.917,3.412c-2.287,3.964-4.447,8.074-6.421,12.215C666.765,434.947,665.946,435.462,665.072,435.518
						z M679.037,411.287c-0.538,0.034-1.09-0.105-1.57-0.432c-1.138-0.779-1.429-2.335-0.648-3.472
						c2.662-3.887,5.511-7.717,8.467-11.383c0.866-1.076,2.439-1.241,3.513-0.378c1.074,0.867,1.243,2.438,0.377,3.512
						c-2.875,3.567-5.646,7.292-8.236,11.072C680.488,410.864,679.777,411.239,679.037,411.287z M696.589,389.517
						c-0.668,0.043-1.35-0.181-1.875-0.677c-1.003-0.946-1.049-2.527-0.102-3.531c3.232-3.424,6.642-6.762,10.136-9.924
						c1.022-0.926,2.602-0.846,3.529,0.175c0.925,1.023,0.847,2.602-0.176,3.528c-3.397,3.076-6.713,6.322-9.855,9.652
						C697.794,389.217,697.198,389.478,696.589,389.517z M717.318,370.755c-0.802,0.051-1.613-0.283-2.14-0.968
						c-0.843-1.092-0.641-2.661,0.452-3.503c3.737-2.882,7.627-5.646,11.563-8.213c1.154-0.757,2.703-0.427,3.457,0.725
						c0.753,1.156,0.428,2.704-0.727,3.457c-3.826,2.497-7.609,5.185-11.241,7.987C718.272,370.555,717.797,370.724,717.318,370.755
						z M740.73,355.473c-0.94,0.06-1.873-0.415-2.354-1.296c-0.661-1.211-0.215-2.729,0.996-3.39
						c4.123-2.25,8.399-4.37,12.709-6.303c1.256-0.561,2.736-0.001,3.301,1.257c0.565,1.259,0.002,2.737-1.258,3.302
						c-4.191,1.88-8.35,3.942-12.36,6.131C741.435,355.353,741.082,355.451,740.73,355.473z"/>
				</g>
			</g>
		</g>
	</g>
	<g>
		<g>
			<g>
				<path style="fill:#E4E6EC;" d="M1624.718,589.649h-4.337c-1.38,0-2.498-1.118-2.498-2.498s1.118-2.498,2.498-2.498h4.337
					c1.38,0,2.498,1.118,2.498,2.498S1626.098,589.649,1624.718,589.649z"/>
			</g>
		</g>
	</g>
	<g>
		<g>
			<g>
				<path style="fill:#E4E6EC;" d="M1624.718,695.748h-4.337c-1.38,0-2.498-1.118-2.498-2.498c0-1.38,1.118-2.498,2.498-2.498h4.337
					c1.38,0,2.498,1.118,2.498,2.498C1627.216,694.63,1626.098,695.748,1624.718,695.748z"/>
			</g>
		</g>
	</g>
	<g>
		<g>
			<g>
				<path style="fill:#E4E6EC;" d="M1567.937,589.649h-4.337c-1.38,0-2.498-1.118-2.498-2.498s1.118-2.498,2.498-2.498h4.337
					c1.38,0,2.498,1.118,2.498,2.498S1569.317,589.649,1567.937,589.649z"/>
			</g>
		</g>
	</g>
	<g>
		<g>
			<g>
				<path style="fill:#E4E6EC;" d="M1567.937,642.698h-4.337c-1.38,0-2.498-1.118-2.498-2.498c0-1.38,1.118-2.498,2.498-2.498h4.337
					c1.38,0,2.498,1.118,2.498,2.498C1570.435,641.58,1569.317,642.698,1567.937,642.698z"/>
			</g>
		</g>
	</g>
	<g>
		<g>
			<g>
				<path style="fill:#E4E6EC;" d="M1511.315,642.698h-2.672c-1.38,0-2.498-1.118-2.498-2.498c0-1.38,1.118-2.498,2.498-2.498h2.672
					c1.38,0,2.498,1.118,2.498,2.498C1513.813,641.58,1512.695,642.698,1511.315,642.698z"/>
			</g>
		</g>
	</g>
	<g>
		<g>
			<path style="fill:#D3D5DD;" d="M1508.272,235.37v-5.043c-1.668-0.054-3.333-0.046-4.996,0.011v5.032
				c0,1.38,1.118,2.498,2.498,2.498S1508.272,236.75,1508.272,235.37z"/>
		</g>
	</g>
	<g>
		<g>
			<path style="fill:#D3D5DD;" d="M1508.272,380.244v-5.032c0-1.38-1.118-2.498-2.498-2.498s-2.498,1.118-2.498,2.498v5.042
				C1504.944,380.309,1506.61,380.301,1508.272,380.244z"/>
		</g>
	</g>
	<g>
		<g>
			<path style="fill:#D3D5DD;" d="M1472.977,243.489l-2.521-4.367c-1.472,0.787-2.91,1.627-4.321,2.507l2.516,4.358
				c0.69,1.195,2.217,1.604,3.412,0.914C1473.257,246.211,1473.667,244.684,1472.977,243.489z"/>
		</g>
	</g>
	<g>
		<g>
			<path style="fill:#D3D5DD;" d="M1545.414,368.953l-2.516-4.358c-0.69-1.195-2.217-1.604-3.412-0.914
				c-1.195,0.69-1.604,2.217-0.914,3.412l2.521,4.367C1542.564,370.673,1544.003,369.834,1545.414,368.953z"/>
		</g>
	</g>
	<g>
		<g>
			<path style="fill:#D3D5DD;" d="M1446.47,268.168l-4.367-2.521c-0.881,1.418-1.707,2.864-2.488,4.332l4.358,2.516
				c1.195,0.69,2.722,0.281,3.412-0.914C1448.074,270.385,1447.665,268.857,1446.47,268.168z"/>
		</g>
	</g>
	<g>
		<g>
			<path style="fill:#D3D5DD;" d="M1571.934,340.604l-4.358-2.516c-1.195-0.69-2.722-0.281-3.412,0.914s-0.281,2.722,0.914,3.412
				l4.367,2.521C1570.326,343.519,1571.152,342.072,1571.934,340.604z"/>
		</g>
	</g>
	<g>
		<g>
			<path style="fill:#D3D5DD;" d="M1435.853,302.793h-5.043c-0.054,1.668-0.046,3.333,0.011,4.996h5.032
				c1.38,0,2.498-1.118,2.498-2.498S1437.233,302.793,1435.853,302.793z"/>
		</g>
	</g>
	<g>
		<g>
			<path style="fill:#D3D5DD;" d="M1580.727,302.793h-5.032c-1.38,0-2.498,1.118-2.498,2.498s1.118,2.498,2.498,2.498h5.042
				C1580.792,306.121,1580.784,304.456,1580.727,302.793z"/>
		</g>
	</g>
	<g>
		<g>
			<path style="fill:#D3D5DD;" d="M1443.972,338.088l-4.367,2.521c0.787,1.472,1.627,2.91,2.507,4.321l4.358-2.516
				c1.195-0.69,1.604-2.217,0.914-3.412C1446.694,337.808,1445.167,337.398,1443.972,338.088z"/>
		</g>
	</g>
	<g>
		<g>
			<path style="fill:#D3D5DD;" d="M1569.436,265.652l-4.358,2.516c-1.195,0.69-1.604,2.217-0.914,3.412s2.217,1.604,3.412,0.914
				l4.367-2.521C1571.156,268.501,1570.317,267.062,1569.436,265.652z"/>
		</g>
	</g>
	<g>
		<g>
			<path style="fill:#D3D5DD;" d="M1468.651,364.595l-2.521,4.367c1.417,0.881,2.864,1.707,4.332,2.488l2.516-4.358
				c0.69-1.195,0.281-2.722-0.914-3.412C1470.868,362.991,1469.34,363.401,1468.651,364.595z"/>
		</g>
	</g>
	<g>
		<g>
			<path style="fill:#D3D5DD;" d="M1541.087,239.131l-2.516,4.358c-0.69,1.195-0.281,2.722,0.914,3.412s2.722,0.281,3.412-0.914
				l2.521-4.367C1544.001,240.739,1542.555,239.913,1541.087,239.131z"/>
		</g>
	</g>
	<g>
		<g>
			<g>
				<path style="fill:#1C3C4F;" d="M1502.249,299.698c-0.964,0-1.882-0.561-2.291-1.501l-13.781-31.624
					c-0.551-1.264,0.027-2.736,1.292-3.287s2.737,0.028,3.287,1.292l13.781,31.624c0.551,1.264-0.027,2.736-1.292,3.287
					C1502.921,299.631,1502.582,299.698,1502.249,299.698z"/>
			</g>
		</g>
	</g>
	<g>
		<g>
			<g>
				<path style="fill:#F6F6F7;" d="M856.687,554.446h-59.389c-1.38,0-2.498-1.118-2.498-2.498c0-1.38,1.118-2.498,2.498-2.498
					h59.389c1.38,0,2.498,1.118,2.498,2.498C859.185,553.328,858.067,554.446,856.687,554.446z"/>
			</g>
		</g>
	</g>
	<g>
		<g>
			<g>
				<path style="fill:#F6F6F7;" d="M856.687,571.314h-59.389c-1.38,0-2.498-1.118-2.498-2.498c0-1.38,1.118-2.498,2.498-2.498
					h59.389c1.38,0,2.498,1.118,2.498,2.498C859.185,570.196,858.067,571.314,856.687,571.314z"/>
			</g>
		</g>
	</g>
	<g>
		<g>
			<g>
				<path style="fill:#F6F6F7;" d="M856.687,629.031h-59.389c-1.38,0-2.498-1.118-2.498-2.498c0-1.38,1.118-2.498,2.498-2.498
					h59.389c1.38,0,2.498,1.118,2.498,2.498C859.185,627.913,858.067,629.031,856.687,629.031z"/>
			</g>
		</g>
	</g>
	<g>
		<g>
			<g>
				<path style="fill:#F6F6F7;" d="M856.687,645.898h-59.389c-1.38,0-2.498-1.118-2.498-2.498c0-1.38,1.118-2.498,2.498-2.498
					h59.389c1.38,0,2.498,1.118,2.498,2.498C859.185,644.78,858.067,645.898,856.687,645.898z"/>
			</g>
		</g>
	</g>
	<g>
		<g>
			<g>
				<path style="fill:#C3F4FC;" d="M839.63,517.786h-38.283c-4.566,0-8.301,3.735-8.301,8.301c0,4.566,3.735,8.301,8.301,8.301
					h38.283c4.566,0,8.301-3.735,8.301-8.301C847.931,521.521,844.196,517.786,839.63,517.786z"/>
			</g>
		</g>
		<g>
			<g>
				<path style="fill:#C3F4FC;" d="M839.63,592.711h-38.283c-4.566,0-8.301,3.736-8.301,8.301s3.735,8.301,8.301,8.301h38.283
					c4.566,0,8.301-3.735,8.301-8.301S844.196,592.711,839.63,592.711z"/>
			</g>
		</g>
		<g>
			<g>
				<path style="fill:#C3F4FC;" d="M895.368,534.388h38.283c4.566,0,8.301-3.735,8.301-8.301c0-4.566-3.736-8.301-8.301-8.301
					h-38.283c-4.566,0-8.301,3.735-8.301,8.301C887.067,530.653,890.803,534.388,895.368,534.388z"/>
			</g>
		</g>
		<g>
			<g>
				<path style="fill:#C3F4FC;" d="M933.652,592.711h-38.283c-4.566,0-8.301,3.736-8.301,8.301s3.736,8.301,8.301,8.301h38.283
					c4.566,0,8.301-3.735,8.301-8.301S938.217,592.711,933.652,592.711z"/>
			</g>
		</g>
	</g>
	<g>
		<g>
			<g>
				<path style="fill:#F6F6F7;" d="M950.709,554.446h-59.39c-1.38,0-2.498-1.118-2.498-2.498c0-1.38,1.118-2.498,2.498-2.498h59.39
					c1.38,0,2.498,1.118,2.498,2.498C953.207,553.328,952.089,554.446,950.709,554.446z"/>
			</g>
		</g>
	</g>
	<g>
		<g>
			<g>
				<path style="fill:#F6F6F7;" d="M950.709,571.314h-59.39c-1.38,0-2.498-1.118-2.498-2.498c0-1.38,1.118-2.498,2.498-2.498h59.39
					c1.38,0,2.498,1.118,2.498,2.498C953.207,570.196,952.089,571.314,950.709,571.314z"/>
			</g>
		</g>
	</g>
	<g>
		<g>
			<g>
				<path style="fill:#F6F6F7;" d="M950.709,629.031h-59.39c-1.38,0-2.498-1.118-2.498-2.498c0-1.38,1.118-2.498,2.498-2.498h59.39
					c1.38,0,2.498,1.118,2.498,2.498C953.207,627.913,952.089,629.031,950.709,629.031z"/>
			</g>
		</g>
	</g>
	<g>
		<g>
			<g>
				<path style="fill:#F6F6F7;" d="M950.709,645.898h-59.39c-1.38,0-2.498-1.118-2.498-2.498c0-1.38,1.118-2.498,2.498-2.498h59.39
					c1.38,0,2.498,1.118,2.498,2.498C953.207,644.78,952.089,645.898,950.709,645.898z"/>
			</g>
		</g>
	</g>
	<g>
		<g>
			<path style="fill:#FFE91D;" d="M1289.685,818l7.882-52.049l12.119-216.165l-8.87,6.724l-28.808,76.691l14.404,13.941
				l-11.414,14.87C1274.999,662.012,1288.773,753.409,1289.685,818z"/>
		</g>
	</g>
	<g>
		<g>
			<path style="fill:#FFE91D;" d="M1374.011,767.616l3.878,57.21c4.575-44.754,27.49-155.069,27.49-155.069l-18.507-18.123
				l21.827-15.8l-21.827-83.373l-22.31-8.434L1374.011,767.616z"/>
		</g>
	</g>
	<g>
		<g>
			<path style="fill:#F6F6F7;" d="M1130.7,855.759L1130.7,855.759c0-5.108,4.141-9.249,9.249-9.249h73.158v18.498h-73.158
				C1134.841,865.008,1130.7,860.867,1130.7,855.759z"/>
		</g>
	</g>
	<g>
		<g>
			<path style="fill:#F6F6F7;" d="M1130.7,887.324L1130.7,887.324c0-5.108,4.141-9.249,9.249-9.249h73.158v18.498h-73.158
				C1134.841,896.573,1130.7,892.432,1130.7,887.324z"/>
		</g>
	</g>
	<g>
		<g>
			<path style="fill:#F6F6F7;" d="M1109.853,918.889L1109.853,918.889c0-5.108,4.141-9.249,9.249-9.249h73.158v18.498h-73.158
				C1113.994,928.138,1109.853,923.997,1109.853,918.889z"/>
		</g>
	</g>
	<g>
		<g>
			<path style="fill:#E4E6EC;" d="M816.769,926.234c0-4.64-3.796-8.437-8.437-8.437h159.506c4.64,0,8.437,3.796,8.437,8.437
				c0,4.64-3.796,8.437-8.437,8.437H808.333C812.973,934.671,816.769,930.875,816.769,926.234z"/>
		</g>
	</g>
	<g>
		<g>
			<path style="fill:#D3D5DD;" d="M808.333,917.798h-78.429l10.708,7.685c3.969,2.849,1.954,9.114-2.932,9.114l70.654,0.074
				c4.64,0,8.437-3.797,8.437-8.437S812.973,917.798,808.333,917.798z"/>
		</g>
	</g>
	<g>
		<g>
			<path style="fill:#E4E6EC;" d="M824.02,793.181c0.806-3.519,3.938-6.014,7.548-6.014h0c4.976,0,8.66,4.625,7.549,9.475
				l-27.768,121.156h-15.891L824.02,793.181z"/>
		</g>
	</g>
	<g>
		<g>
			<path style="fill:#F6F6F7;" d="M831.569,787.167h169.282c5.521,0,9.609,5.131,8.375,10.512L983.331,910.66
				c-0.957,4.177-4.674,7.138-8.959,7.138H811.349l27.768-121.156C840.229,791.791,836.544,787.167,831.569,787.167z"/>
		</g>
	</g>
	<g>
		<g>
			<path style="fill:#E4E6EC;" d="M899.24,853.906c1.909-8.446,9.486-13.931,16.923-12.25c7.437,1.681,11.917,9.891,10.008,18.338
				s-9.486,13.931-16.923,12.25C901.811,870.563,897.33,862.353,899.24,853.906z"/>
		</g>
	</g>
	<g>
		<g>
			<path style="fill:#FFB197;" d="M740.611,925.483l-34.057-24.444c-5.66-4.062-12.42-6.31-19.385-6.447l-40.067-0.785
				l-4.991,31.299l18.708,0.951c0,0,6.27,9.21,17.505,9.21h59.354C742.565,935.267,744.581,928.332,740.611,925.483z"/>
		</g>
	</g>
	<g>
		<g>
			<path style="fill:#EF9E89;" d="M706.555,901.039l22.119,15.876c1.693-4.345,1.191-7.889-0.154-10.625
				c-2.186-4.448-6.921-7.072-11.877-7.072h-12.946C704.673,899.782,705.633,900.378,706.555,901.039z"/>
		</g>
	</g>
	<g>
		<g>
			<path style="fill:#EF7756;" d="M654.913,917.034c-0.755-1.155-2.305-1.481-3.457-0.722c-1.155,0.755-1.478,2.303-0.722,3.457
				l3.911,5.974l6.175,0.314L654.913,917.034z"/>
		</g>
	</g>
	<g>
		<g>
			<g>
				<path style="fill:#EF7756;" d="M735.419,941.09c-0.498,0-1-0.148-1.438-0.457l-34.856-24.602
					c-1.128-0.796-1.396-2.354-0.601-3.481c0.796-1.127,2.354-1.397,3.481-0.601l34.856,24.602c1.128,0.796,1.396,2.354,0.601,3.481
					C736.975,940.722,736.204,941.09,735.419,941.09z"/>
			</g>
		</g>
	</g>
	<g>
		<g>
			<g>
				<path style="fill:#EF7756;" d="M716.72,942.316c-0.461,0-0.927-0.127-1.344-0.394l-25.857-16.545
					c-1.162-0.744-1.501-2.289-0.758-3.451c0.744-1.162,2.287-1.503,3.451-0.758l25.857,16.545c1.162,0.744,1.501,2.289,0.758,3.451
					C718.349,941.91,717.544,942.316,716.72,942.316z"/>
			</g>
		</g>
	</g>
	<g>
		<g>
			<path style="fill:#4F667D;" d="M522.442,1006.197c0,0-4.182,58.553,24.629,66.453c28.812,7.9,58.088,10.223,58.088,10.223
				v259.769h78.623l31.889-273.292c3.372-28.896-13.272-56.307-40.372-66.888C633.85,986.279,571.799,972.544,522.442,1006.197z"/>
		</g>
	</g>
	<g>
		<g>
			<g>
				<path style="fill:#1C3C4F;" d="M1716.88,1436.222H283.12c-1.38,0-2.498-1.119-2.498-2.498s1.118-2.498,2.498-2.498h1433.76
					c1.38,0,2.498,1.119,2.498,2.498S1718.26,1436.222,1716.88,1436.222z"/>
			</g>
		</g>
	</g>
	<g>
		<g>
			<rect x="305.972" y="934.671" style="fill:#F4A37A;" width="1388.057" height="30.559"/>
		</g>
	</g>
	<g>
		<g>
			<path style="fill:#4A3CA3;" d="M603.924,878.034c-25.701-4.431-67.664-11.82-75.997-13.904
				c-16.418-4.106-29.596,1.281-30.148,1.513c-1.271,0.532-1.869,1.99-1.341,3.263c0.529,1.272,1.993,1.874,3.264,1.347
				c0.121-0.049,12.269-4.965,27.014-1.277c8.568,2.142,50.624,9.55,76.357,13.986c1.352,0.233,2.64-0.667,2.885-2.017
				C606.206,879.578,605.293,878.27,603.924,878.034z"/>
		</g>
	</g>
	<g>
		<g>
			<g>
				<path style="fill:#FF8B7E;" d="M1560.903,307.789h-78.341c-1.38,0-2.498-1.118-2.498-2.498s1.118-2.498,2.498-2.498h78.341
					c1.38,0,2.498,1.118,2.498,2.498S1562.282,307.789,1560.903,307.789z"/>
			</g>
		</g>
	</g>
	<g>
		<g>
			<circle style="fill:#FF8B7E;" cx="1505.774" cy="305.291" r="10.324"/>
		</g>
	</g>
	<g>
		<g>
			<path style="fill:#1C3C4F;" d="M715.799,1068.665l-1.665,13.848l0,0l4.824,0.808l1.645-14.095
				c3.486-29.881-13.741-58.429-41.895-69.421c-6.147-2.4-12.342-4.586-18.414-6.499c-1.276-0.401-2.632,0.306-3.033,1.579
				c-0.401,1.274,0.306,2.632,1.58,3.033c5.968,1.881,12.061,4.031,18.108,6.392
				C703.055,1014.503,719.031,1040.966,715.799,1068.665z"/>
		</g>
	</g>
	<g>
		<g>
			<circle style="fill:#FFE91D;" cx="1241.948" cy="137.936" r="74.158"/>
		</g>
	</g>
	<g>
		<g>
			<path style="fill:#FFC71C;" d="M1274.594,137.936c0-2.137-0.22-4.221-0.612-6.244l11.863-6.849l-10.61-18.376l-11.881,6.86
				c-3.132-2.728-6.784-4.859-10.795-6.238V93.375h-21.22v13.714c-4.011,1.379-7.663,3.511-10.796,6.238l-11.881-6.86l-10.61,18.376
				l11.863,6.849c-0.392,2.023-0.613,4.107-0.613,6.244c0,2.137,0.22,4.221,0.613,6.244l-11.863,6.848l10.61,18.377l11.881-6.86
				c3.132,2.727,6.784,4.859,10.796,6.238v13.714h21.22v-13.714c4.011-1.379,7.663-3.511,10.796-6.238l11.881,6.86l10.61-18.377
				l-11.863-6.848C1274.375,142.157,1274.594,140.073,1274.594,137.936z M1241.948,151.801c-7.657,0-13.865-6.207-13.865-13.864
				s6.207-13.865,13.865-13.865c7.657,0,13.865,6.208,13.865,13.865S1249.606,151.801,1241.948,151.801z"/>
		</g>
	</g>
	<g>
		<ellipse style="fill:#1C3C4F;" cx="1326.655" cy="478.739" rx="5.478" ry="6.294"/>
	</g>
	<g>
		<ellipse style="fill:#1C3C4F;" cx="1297.288" cy="479.654" rx="5.478" ry="6.294"/>
	</g>
	<g>
		<path style="fill:#E85D62;" d="M1319.661,504.19c-4.741,0.751-8.977,0.631-12.292,0.24c-3.296-0.389-5.437,3.408-3.323,5.966
			c2.04,2.469,4.965,4.742,9.023,5.371c5.057,0.783,8.373-2.638,10.409-6.185C1325.005,506.923,1322.688,503.71,1319.661,504.19z"/>
	</g>
	<g>
		<path style="fill:#EF7756;" d="M1305.135,498.812c-0.689,0-1.376-0.275-1.884-0.819c-0.976-1.04-0.923-2.673,0.116-3.651
			c4.336-4.063,4.423-11.47,4.423-11.548c0.006-1.42,1.162-2.573,2.582-2.573c0.002,0,0.004,0,0.006,0
			c1.424,0.004,2.577,1.156,2.577,2.58c0,0.392-0.068,9.697-6.053,15.312C1306.404,498.58,1305.769,498.812,1305.135,498.812z"/>
	</g>
	<g>
		<ellipse style="fill:#1C3C4F;" cx="671.215" cy="617.954" rx="5.842" ry="6.712"/>
	</g>
	<g>
		<ellipse style="fill:#1C3C4F;" cx="702.533" cy="618.929" rx="5.842" ry="6.712"/>
	</g>
	<g>
		<path style="fill:#EF7756;" d="M686.754,653.453c-4.491,0-11.177-1.024-18.326-5.696c-1.193-0.78-1.531-2.379-0.751-3.574
			c0.782-1.195,2.379-1.54,3.576-0.749c10.432,6.806,19.421,4.521,19.799,4.416c1.372-0.388,2.79,0.438,3.166,1.812
			c0.374,1.37-0.423,2.786-1.793,3.166C692.228,652.882,690.099,653.453,686.754,653.453z"/>
	</g>
	<g>
		<path style="fill:#EF7756;" d="M694.391,640.341c-0.634,0-1.267-0.233-1.766-0.698c-6.777-6.352-6.854-16.91-6.854-17.356
			c0-1.424,1.152-2.576,2.577-2.58c0.002,0,0.004,0,0.006,0c1.422,0,2.576,1.152,2.582,2.576c0,0.085,0.097,8.789,5.221,13.589
			c1.042,0.978,1.094,2.611,0.118,3.651C695.766,640.066,695.08,640.341,694.391,640.341z"/>
	</g>
</g>
</svg>
